<svg xmlns="http://www.w3.org/2000/svg" xmlns:xlink="http://www.w3.org/1999/xlink" width="800" zoomAndPan="magnify" viewBox="0 0 600 187.499995" height="250" preserveAspectRatio="xMidYMid meet" version="1.0"><defs><g/><clipPath id="6ed3d458c0"><path d="M 0.796875 133 L 140 133 L 140 172 L 0.796875 172 Z M 0.796875 133 " clip-rule="nonzero"/></clipPath><clipPath id="b0315f8e92"><path d="M 509 133 L 599.199219 133 L 599.199219 173 L 509 173 Z M 509 133 " clip-rule="nonzero"/></clipPath></defs><path stroke-linecap="butt" transform="matrix(0.375179, 0, 0, 0.375179, 33.456985, -12.239324)" fill="none" stroke-linejoin="miter" d="M 199.113241 102.578728 L 203.413268 102.578728 C 216.157174 102.578728 225.173696 109.960614 230.483657 124.724388 C 230.806419 125.890497 230.962594 127.056606 230.962594 128.222715 L 230.962594 220.459857 C 230.962594 246.26002 220.186497 271.112719 198.634303 294.997131 C 183.443651 309.229908 170.387394 318.256841 159.44471 322.077931 C 143.83759 328.023004 130.239926 331.000747 118.672541 331.000747 L 106.08481 331.000747 C 81.763107 331.000747 57.607992 321.546935 33.609051 302.649721 C 19.16804 288.94794 9.818344 277.109851 5.570376 267.125042 C 1.853403 261.919198 0.00012284 256.827883 0.00012284 251.830273 L 0.00012284 248.810883 C 0.00012284 237.764083 6.372076 229.216087 19.115982 223.166896 C 22.937071 221.678025 26.549927 220.928383 29.944137 220.928383 L 31.859888 220.928383 C 44.603794 220.928383 54.526132 228.580974 61.647727 243.865332 C 74.8081 264.157711 91.060745 274.298695 110.384837 274.298695 L 114.528689 274.298695 C 133.852782 274.298695 150.209543 263.512187 163.588562 241.959993 C 169.210874 231.017309 172.032441 219.658157 172.032441 207.872127 L 172.032441 131.408691 C 172.032441 117.717322 179.518445 108.263509 194.490452 103.057665 Z M 273.650514 102.578728 L 451.89861 102.578728 C 461.664773 102.578728 469.733831 108.263509 476.105784 119.622661 C 477.282305 123.131399 477.86536 125.838438 477.86536 127.754189 L 477.86536 134.126142 C 477.86536 143.257192 472.12852 150.899371 460.65484 157.06309 C 456.937867 158.54155 453.43954 159.291191 450.149447 159.291191 L 304.240053 159.291191 L 304.240053 188.433506 L 417.009044 188.433506 C 431.345938 188.433506 441.007985 194.118287 446.005595 205.477439 C 447.494466 208.777944 448.233696 211.797333 448.233696 214.55643 L 448.233696 218.544107 C 448.233696 230.121904 441.434864 238.669899 427.847611 244.188094 C 425.61951 244.823207 423.495526 245.145969 421.475658 245.145969 L 304.240053 245.145969 L 304.240053 274.298695 L 446.96347 274.298695 C 463.736699 274.298695 474.033858 282.419812 477.86536 298.662045 L 477.86536 306.314635 C 477.86536 315.122923 472.388812 322.608927 461.45654 328.772646 C 458.37468 330.261517 455.511466 331.000747 452.856485 331.000747 L 272.380288 331.000747 C 262.718242 331.000747 254.805359 325.15979 248.652052 313.477877 C 247.475531 310.396017 246.892477 307.688978 246.892477 305.35676 L 246.892477 129.18059 C 246.892477 117.613205 253.691309 109.054798 267.288973 103.536603 C 269.621191 102.90149 271.745175 102.578728 273.650514 102.578728 Z M 273.650514 102.578728 " stroke="#000000" stroke-width="12.233475" stroke-opacity="1" stroke-miterlimit="4"/><path stroke-linecap="butt" transform="matrix(0.375179, 0, 0, 0.375179, 33.456985, -12.239324)" fill="none" stroke-linejoin="miter" d="M 519.439229 102.578728 L 524.062019 102.578728 C 536.170812 102.578728 545.936975 112.136657 553.37092 131.252516 C 553.797799 131.356633 572.913658 168.797062 610.718496 243.552981 C 611.030847 243.448864 618.839613 228.633032 634.123971 199.105486 C 613.311007 159.072546 602.753555 137.832703 602.430793 135.396368 C 602.003914 132.106274 601.691563 130.138465 601.472918 129.503352 C 601.472918 118.248318 607.896929 109.700322 620.744952 103.859365 C 623.514461 103.005607 625.79462 102.578728 627.595842 102.578728 L 632.218632 102.578728 C 644.535659 102.578728 654.468409 112.459419 662.006471 132.210391 C 662.537467 132.314508 663.432872 134.126142 664.71351 137.624469 C 665.02586 137.624469 669.336299 129.659528 677.613591 113.729645 C 683.881427 106.2957 690.617789 102.578728 697.8435 102.578728 L 702.299703 102.578728 C 712.503157 102.578728 720.624273 108.419685 726.673464 120.101598 C 727.839573 123.818571 728.422627 127.108664 728.422627 129.98229 C 728.422627 135.292251 724.174659 145.58941 715.678722 160.88418 C 702.830699 185.091354 696.406687 197.83526 696.406687 199.105486 C 711.378694 228.31027 718.864698 243.126102 718.864698 243.552981 C 719.395694 243.021985 741.697529 199.75101 785.770204 113.729645 C 791.933923 106.2957 798.670285 102.578728 806.000114 102.578728 L 810.622903 102.578728 C 820.066304 102.578728 827.823011 107.83663 833.872202 118.352435 C 835.46519 121.330177 836.26689 124.141333 836.26689 126.796314 L 836.26689 132.210391 C 836.26689 136.885239 829.520116 151.222133 816.036981 175.221074 C 767.716337 270.789956 742.655405 319.589537 740.854183 321.598993 C 734.79458 327.866829 728.537156 331.000747 722.050674 331.000747 L 716.959359 331.000747 C 704.850566 331.000747 695.719516 322.931689 689.555797 306.783161 C 673.636326 275.9958 665.348623 260.274152 664.71351 259.639039 C 644.962538 299.890624 633.655445 321.286642 630.781819 323.827094 C 624.732628 328.606059 619.099905 331.000747 613.904473 331.000747 L 608.802746 331.000747 C 596.485719 331.000747 587.031907 322.348635 580.45172 305.033998 C 523.426906 194.701342 494.857234 138.582344 494.753117 136.666594 C 494.118004 135.500485 493.795242 133.855438 493.795242 131.731454 L 493.795242 128.222715 C 493.795242 116.332567 501.12507 107.940747 515.774315 103.057665 C 516.950836 102.745315 518.169003 102.578728 519.439229 102.578728 Z M 879.746099 102.578728 L 884.046126 102.578728 C 893.8227 102.578728 901.943817 108.003217 908.419887 118.831372 C 910.231521 122.3297 911.126926 126.52561 911.126926 131.408691 L 911.126926 303.607596 C 911.126926 316.02874 903.797097 325.003615 889.147853 330.52181 C 887.450748 330.844572 886.065993 331.000747 885.004001 331.000747 L 878.475873 331.000747 C 868.491064 331.000747 860.369947 325.15979 854.102111 313.477877 C 852.831885 310.396017 852.196772 307.688978 852.196772 305.35676 L 852.196772 129.18059 C 852.196772 117.613205 859.203838 109.054798 873.21797 103.536603 C 875.550188 102.90149 877.736643 102.578728 879.746099 102.578728 Z M 953.814846 102.578728 L 1089.853959 102.578728 C 1109.282169 102.578728 1127.17986 111.709778 1143.52621 129.98229 C 1153.188256 143.892305 1158.019279 156.948562 1158.019279 169.161471 L 1158.019279 178.563226 C 1158.019279 197.148088 1148.784112 214.55643 1130.303366 230.809075 C 1119.048332 238.024375 1110.083869 242.220285 1103.389153 243.396806 L 1103.389153 243.709156 C 1126.961215 264.626237 1142.464218 279.181777 1149.898163 287.354952 C 1153.188256 292.873146 1154.833303 298.131049 1154.833303 303.128659 C 1154.833303 315.122923 1148.148999 324.097798 1134.76998 330.042872 C 1132.115 330.677985 1130.147191 331.000747 1128.876965 331.000747 L 1122.505012 331.000747 C 1115.071067 331.000747 1105.242434 324.42056 1093.039936 311.249775 C 1088.791967 307.741037 1064.678498 285.709905 1020.720352 245.145969 L 984.404385 245.145969 L 984.404385 303.607596 C 984.404385 316.02874 977.230732 325.003615 962.893838 330.52181 C 961.300849 330.844572 959.978565 331.000747 958.916573 331.000747 L 952.54462 331.000747 C 942.882574 331.000747 934.969691 325.15979 928.805972 313.477877 C 927.639863 310.396017 927.056808 307.688978 927.056808 305.35676 L 927.056808 129.18059 C 927.056808 117.613205 933.85564 109.054798 947.442893 103.536603 C 949.785523 102.90149 951.909507 102.578728 953.814846 102.578728 Z M 984.404385 159.291191 L 984.404385 188.912443 L 1100.682114 188.912443 L 1100.682114 159.291191 Z M 1200.717611 102.578728 L 1378.955295 102.578728 C 1388.721459 102.578728 1396.790517 108.263509 1403.16247 119.622661 C 1404.33899 123.131399 1404.922045 125.838438 1404.922045 127.754189 L 1404.922045 134.126142 C 1404.922045 143.257192 1399.185205 150.899371 1387.711525 157.06309 C 1383.994552 158.54155 1380.496225 159.291191 1377.206132 159.291191 L 1231.296738 159.291191 L 1231.296738 188.433506 L 1344.076141 188.433506 C 1358.402624 188.433506 1368.075082 194.118287 1373.06228 205.477439 C 1374.551151 208.777944 1375.290381 211.797333 1375.290381 214.55643 L 1375.290381 218.544107 C 1375.290381 230.121904 1368.491549 238.669899 1354.904296 244.188094 C 1352.676195 244.823207 1350.552211 245.145969 1348.532343 245.145969 L 1231.296738 245.145969 L 1231.296738 274.298695 L 1374.020155 274.298695 C 1390.793384 274.298695 1401.100955 282.419812 1404.922045 298.662045 L 1404.922045 306.314635 C 1404.922045 315.122923 1399.445497 322.608927 1388.513225 328.772646 C 1385.431365 330.261517 1382.568151 331.000747 1379.913171 331.000747 L 1199.436974 331.000747 C 1189.774927 331.000747 1181.862045 325.15979 1175.708737 313.477877 C 1174.532216 310.396017 1173.949162 307.688978 1173.949162 305.35676 L 1173.949162 129.18059 C 1173.949162 117.613205 1180.747994 109.054798 1194.345658 103.536603 C 1196.677876 102.90149 1198.801861 102.578728 1200.717611 102.578728 Z M 1200.717611 102.578728 " stroke="#000000" stroke-width="12.233475" stroke-opacity="1" stroke-miterlimit="4"/><g fill="#25632d" fill-opacity="1"><g transform="translate(33.456985, 111.945032)"><g><path d="M 74.703125 -85.703125 L 76.3125 -85.703125 C 81.09375 -85.703125 84.476562 -82.929688 86.46875 -77.390625 C 86.59375 -76.953125 86.65625 -76.515625 86.65625 -76.078125 L 86.65625 -41.46875 C 86.65625 -31.789062 82.609375 -22.46875 74.515625 -13.5 C 68.816406 -8.164062 63.921875 -4.78125 59.828125 -3.34375 C 53.960938 -1.113281 48.859375 0 44.515625 0 L 39.796875 0 C 30.671875 0 21.609375 -3.546875 12.609375 -10.640625 C 7.191406 -15.773438 3.6875 -20.21875 2.09375 -23.96875 C 0.695312 -25.914062 0 -27.828125 0 -29.703125 L 0 -30.84375 C 0 -34.976562 2.390625 -38.179688 7.171875 -40.453125 C 8.609375 -41.015625 9.960938 -41.296875 11.234375 -41.296875 L 11.953125 -41.296875 C 16.734375 -41.296875 20.457031 -38.425781 23.125 -32.6875 C 28.0625 -25.082031 34.160156 -21.28125 41.421875 -21.28125 L 42.96875 -21.28125 C 50.21875 -21.28125 56.351562 -25.320312 61.375 -33.40625 C 63.488281 -37.507812 64.546875 -41.769531 64.546875 -46.1875 L 64.546875 -74.875 C 64.546875 -80.019531 67.351562 -83.566406 72.96875 -85.515625 Z M 74.703125 -85.703125 "/></g></g><g transform="translate(126.086892, 111.945032)"><g><path d="M 10.046875 -85.703125 L 76.90625 -85.703125 C 80.570312 -85.703125 83.601562 -83.566406 86 -79.296875 C 86.4375 -77.984375 86.65625 -76.96875 86.65625 -76.25 L 86.65625 -73.859375 C 86.65625 -70.429688 84.503906 -67.566406 80.203125 -65.265625 C 78.804688 -64.703125 77.488281 -64.421875 76.25 -64.421875 L 21.515625 -64.421875 L 21.515625 -53.484375 L 63.828125 -53.484375 C 69.203125 -53.484375 72.828125 -51.351562 74.703125 -47.09375 C 75.253906 -45.851562 75.53125 -44.71875 75.53125 -43.6875 L 75.53125 -42.1875 C 75.53125 -37.84375 72.984375 -34.632812 67.890625 -32.5625 C 67.054688 -32.332031 66.257812 -32.21875 65.5 -32.21875 L 21.515625 -32.21875 L 21.515625 -21.28125 L 75.0625 -21.28125 C 81.351562 -21.28125 85.21875 -18.226562 86.65625 -12.125 L 86.65625 -9.265625 C 86.65625 -5.953125 84.601562 -3.144531 80.5 -0.84375 C 79.34375 -0.28125 78.265625 0 77.265625 0 L 9.5625 0 C 5.9375 0 2.96875 -2.191406 0.65625 -6.578125 C 0.21875 -7.734375 0 -8.75 0 -9.625 L 0 -75.71875 C 0 -80.0625 2.550781 -83.269531 7.65625 -85.34375 C 8.53125 -85.582031 9.328125 -85.703125 10.046875 -85.703125 Z M 10.046875 -85.703125 "/></g></g></g><g fill="#560216" fill-opacity="1"><g transform="translate(218.719365, 111.945032)"><g><path d="M 9.625 -85.703125 L 11.359375 -85.703125 C 15.898438 -85.703125 19.5625 -82.113281 22.34375 -74.9375 C 22.507812 -74.894531 29.679688 -60.851562 43.859375 -32.8125 C 43.984375 -32.851562 46.914062 -38.410156 52.65625 -49.484375 C 44.84375 -64.503906 40.875 -72.472656 40.75 -73.390625 C 40.59375 -74.617188 40.476562 -75.351562 40.40625 -75.59375 C 40.40625 -79.820312 42.8125 -83.03125 47.625 -85.21875 C 48.664062 -85.539062 49.523438 -85.703125 50.203125 -85.703125 L 51.9375 -85.703125 C 56.550781 -85.703125 60.273438 -81.992188 63.109375 -74.578125 C 63.304688 -74.535156 63.644531 -73.859375 64.125 -72.546875 C 64.238281 -72.546875 65.851562 -75.535156 68.96875 -81.515625 C 71.3125 -84.304688 73.835938 -85.703125 76.546875 -85.703125 L 78.234375 -85.703125 C 82.054688 -85.703125 85.101562 -83.507812 87.375 -79.125 C 87.8125 -77.726562 88.03125 -76.492188 88.03125 -75.421875 C 88.03125 -73.429688 86.4375 -69.566406 83.25 -63.828125 C 78.425781 -54.742188 76.015625 -49.960938 76.015625 -49.484375 C 81.628906 -38.523438 84.4375 -32.96875 84.4375 -32.8125 C 84.632812 -33.007812 93.003906 -49.242188 109.546875 -81.515625 C 111.859375 -84.304688 114.382812 -85.703125 117.125 -85.703125 L 118.859375 -85.703125 C 122.410156 -85.703125 125.320312 -83.726562 127.59375 -79.78125 C 128.1875 -78.664062 128.484375 -77.609375 128.484375 -76.609375 L 128.484375 -74.578125 C 128.484375 -72.828125 125.953125 -67.453125 120.890625 -58.453125 C 102.765625 -22.585938 93.363281 -4.28125 92.6875 -3.53125 C 90.414062 -1.175781 88.066406 0 85.640625 0 L 83.71875 0 C 79.175781 0 75.753906 -3.023438 73.453125 -9.078125 C 67.472656 -20.640625 64.363281 -26.535156 64.125 -26.765625 C 56.71875 -11.671875 52.472656 -3.644531 51.390625 -2.6875 C 49.117188 -0.894531 47.007812 0 45.0625 0 L 43.140625 0 C 38.523438 0 34.984375 -3.242188 32.515625 -9.734375 C 11.117188 -51.128906 0.398438 -72.1875 0.359375 -72.90625 C 0.117188 -73.34375 0 -73.960938 0 -74.765625 L 0 -76.078125 C 0 -80.535156 2.75 -83.679688 8.25 -85.515625 C 8.6875 -85.640625 9.144531 -85.703125 9.625 -85.703125 Z M 9.625 -85.703125 "/></g></g><g transform="translate(353.182132, 111.945032)"><g><path d="M 10.34375 -85.703125 L 11.953125 -85.703125 C 15.617188 -85.703125 18.664062 -83.671875 21.09375 -79.609375 C 21.769531 -78.285156 22.109375 -76.707031 22.109375 -74.875 L 22.109375 -10.28125 C 22.109375 -5.613281 19.359375 -2.242188 13.859375 -0.171875 C 13.222656 -0.0546875 12.707031 0 12.3125 0 L 9.859375 0 C 6.117188 0 3.070312 -2.191406 0.71875 -6.578125 C 0.238281 -7.734375 0 -8.75 0 -9.625 L 0 -75.71875 C 0 -80.0625 2.628906 -83.269531 7.890625 -85.34375 C 8.765625 -85.582031 9.582031 -85.703125 10.34375 -85.703125 Z M 10.34375 -85.703125 "/></g></g><g transform="translate(381.26991, 111.945032)"><g><path d="M 10.046875 -85.703125 L 61.078125 -85.703125 C 68.367188 -85.703125 75.082031 -82.273438 81.21875 -75.421875 C 84.84375 -70.203125 86.65625 -65.300781 86.65625 -60.71875 L 86.65625 -57.1875 C 86.65625 -50.21875 83.1875 -43.6875 76.25 -37.59375 C 72.03125 -34.882812 68.664062 -33.3125 66.15625 -32.875 L 66.15625 -32.75 C 75 -24.894531 80.816406 -19.4375 83.609375 -16.375 C 84.835938 -14.300781 85.453125 -12.328125 85.453125 -10.453125 C 85.453125 -5.953125 82.941406 -2.585938 77.921875 -0.359375 C 76.929688 -0.117188 76.195312 0 75.71875 0 L 73.328125 0 C 70.535156 0 66.847656 -2.46875 62.265625 -7.40625 C 60.671875 -8.71875 51.628906 -16.988281 35.140625 -32.21875 L 21.515625 -32.21875 L 21.515625 -10.28125 C 21.515625 -5.613281 18.828125 -2.242188 13.453125 -0.171875 C 12.847656 -0.0546875 12.347656 0 11.953125 0 L 9.5625 0 C 5.9375 0 2.96875 -2.191406 0.65625 -6.578125 C 0.21875 -7.734375 0 -8.75 0 -9.625 L 0 -75.71875 C 0 -80.0625 2.550781 -83.269531 7.65625 -85.34375 C 8.53125 -85.582031 9.328125 -85.703125 10.046875 -85.703125 Z M 21.515625 -64.421875 L 21.515625 -53.3125 L 65.140625 -53.3125 L 65.140625 -64.421875 Z M 21.515625 -64.421875 "/></g></g><g transform="translate(473.899817, 111.945032)"><g><path d="M 10.046875 -85.703125 L 76.90625 -85.703125 C 80.570312 -85.703125 83.601562 -83.566406 86 -79.296875 C 86.4375 -77.984375 86.65625 -76.96875 86.65625 -76.25 L 86.65625 -73.859375 C 86.65625 -70.429688 84.503906 -67.566406 80.203125 -65.265625 C 78.804688 -64.703125 77.488281 -64.421875 76.25 -64.421875 L 21.515625 -64.421875 L 21.515625 -53.484375 L 63.828125 -53.484375 C 69.203125 -53.484375 72.828125 -51.351562 74.703125 -47.09375 C 75.253906 -45.851562 75.53125 -44.71875 75.53125 -43.6875 L 75.53125 -42.1875 C 75.53125 -37.84375 72.984375 -34.632812 67.890625 -32.5625 C 67.054688 -32.332031 66.257812 -32.21875 65.5 -32.21875 L 21.515625 -32.21875 L 21.515625 -21.28125 L 75.0625 -21.28125 C 81.351562 -21.28125 85.21875 -18.226562 86.65625 -12.125 L 86.65625 -9.265625 C 86.65625 -5.953125 84.601562 -3.144531 80.5 -0.84375 C 79.34375 -0.28125 78.265625 0 77.265625 0 L 9.5625 0 C 5.9375 0 2.96875 -2.191406 0.65625 -6.578125 C 0.21875 -7.734375 0 -8.75 0 -9.625 L 0 -75.71875 C 0 -80.0625 2.550781 -83.269531 7.65625 -85.34375 C 8.53125 -85.582031 9.328125 -85.703125 10.046875 -85.703125 Z M 10.046875 -85.703125 "/></g></g></g><g clip-path="url(#6ed3d458c0)"><path stroke-linecap="butt" transform="matrix(0.748005, 0, 0, 0.748005, 0.797881, 128.641448)" fill="none" stroke-linejoin="miter" d="M 17.46699 16.224345 C 22.182657 16.224345 25.791213 17.065123 28.303102 18.741457 C 30.809769 20.412568 32.063102 23.023679 32.063102 26.564346 C 32.063102 28.768124 31.556546 30.559346 30.548657 31.932791 C 29.535546 33.301013 28.078546 34.382013 26.177657 35.175791 C 26.809546 35.953902 27.472768 36.857347 28.167324 37.87568 C 28.86188 38.883569 29.545991 39.94368 30.22488 41.050792 C 30.903769 42.147458 31.561769 43.296347 32.19888 44.492236 C 32.830769 45.677681 33.42088 46.847459 33.969213 48.00157 L 26.031435 48.00157 C 25.45699 46.972792 24.872102 45.93357 24.28199 44.878681 C 23.702324 43.81857 23.101768 42.789792 22.480324 41.792347 C 21.858879 40.794903 21.247879 39.84968 20.642101 38.95668 C 20.036323 38.06368 19.435768 37.259458 18.82999 36.533569 L 15.341545 36.533569 L 15.341545 48.00157 L 8.270656 48.00157 L 8.270656 17.03379 C 9.811212 16.730901 11.403989 16.522012 13.04899 16.401901 C 14.699212 16.287012 16.166656 16.224345 17.46699 16.224345 Z M 17.874323 22.245568 C 17.362545 22.245568 16.897768 22.266457 16.495657 22.303013 C 16.088323 22.334346 15.701879 22.360457 15.341545 22.39179 L 15.341545 30.914458 L 17.336434 30.914458 C 19.989323 30.914458 21.895435 30.580235 23.044324 29.917013 C 24.198435 29.253791 24.772879 28.115346 24.772879 26.506902 C 24.772879 24.971568 24.18799 23.880124 23.023435 23.232568 C 21.858879 22.574568 20.140768 22.245568 17.874323 22.245568 Z M 38.502102 48.00157 L 38.502102 16.579457 L 59.719993 16.579457 L 59.719993 22.522346 L 45.578214 22.522346 L 45.578214 28.689791 L 58.127215 28.689791 L 58.127215 34.486458 L 45.578214 34.486458 L 45.578214 42.058681 L 60.759215 42.058681 L 60.759215 48.00157 Z M 87.042661 19.94779 C 87.408217 21.185457 87.805106 22.585013 88.23855 24.141235 C 88.682439 25.687013 89.152439 27.295457 89.643328 28.966569 C 90.144662 30.627235 90.656439 32.287902 91.17344 33.953791 C 91.69044 35.614458 92.186551 37.155014 92.666995 38.570236 C 93.058662 37.02968 93.455551 35.353347 93.862884 33.546458 C 94.27544 31.729124 94.661884 29.859569 95.022218 27.922124 C 95.387773 25.984679 95.737662 24.052457 96.087551 22.135901 C 96.442662 20.219346 96.76644 18.365457 97.069329 16.579457 L 104.406552 16.579457 C 103.351663 21.843457 102.134885 27.180568 100.756218 32.596013 C 99.382773 38.001014 97.899662 43.139681 96.29644 48.00157 L 89.810439 48.00157 C 88.75555 45.098014 87.726773 42.058681 86.724106 38.867903 C 85.726661 35.682347 84.744884 32.486347 83.778772 29.27468 C 82.812661 32.486347 81.84655 35.682347 80.880439 38.867903 C 79.914328 42.058681 78.901216 45.098014 77.846327 48.00157 L 71.360327 48.00157 C 69.762327 43.139681 68.273993 38.001014 66.890104 32.596013 C 65.521882 27.180568 64.305104 21.843457 63.250215 16.579457 L 70.911216 16.579457 C 71.214105 18.365457 71.543105 20.219346 71.903438 22.135901 C 72.268994 24.052457 72.644994 25.984679 73.031438 27.922124 C 73.433549 29.859569 73.835661 31.729124 74.237772 33.546458 C 74.645105 35.353347 75.062883 37.02968 75.491105 38.570236 C 76.034216 37.087125 76.566883 35.515236 77.073439 33.854569 C 77.590439 32.193902 78.08655 30.538458 78.566994 28.877791 C 79.052661 27.20668 79.501772 25.603457 79.909105 24.062902 C 80.311217 22.522346 80.687217 21.148901 81.026661 19.94779 Z M 108.944663 16.579457 L 116.015552 16.579457 L 116.015552 48.00157 L 108.944663 48.00157 Z M 132.465554 16.224345 C 137.181221 16.224345 140.789776 17.065123 143.301665 18.741457 C 145.808332 20.412568 147.061666 23.023679 147.061666 26.564346 C 147.061666 28.768124 146.55511 30.559346 145.547221 31.932791 C 144.53411 33.301013 143.07711 34.382013 141.176221 35.175791 C 141.80811 35.953902 142.471332 36.857347 143.165888 37.87568 C 143.860443 38.883569 144.544554 39.94368 145.223443 41.050792 C 145.902332 42.147458 146.560332 43.296347 147.192221 44.492236 C 147.829332 45.677681 148.419444 46.847459 148.967777 48.00157 L 141.029999 48.00157 C 140.455554 46.972792 139.870665 45.93357 139.280554 44.878681 C 138.700887 43.81857 138.095109 42.789792 137.478887 41.792347 C 136.857443 40.794903 136.246443 39.84968 135.640665 38.95668 C 135.034887 38.06368 134.429109 37.259458 133.823331 36.533569 L 130.340109 36.533569 L 130.340109 48.00157 L 123.26922 48.00157 L 123.26922 17.03379 C 124.809775 16.730901 126.402553 16.522012 128.047553 16.401901 C 129.692553 16.287012 131.16522 16.224345 132.465554 16.224345 Z M 132.872887 22.245568 C 132.355887 22.245568 131.896331 22.266457 131.488998 22.303013 C 131.086887 22.334346 130.700442 22.360457 130.340109 22.39179 L 130.340109 30.914458 L 132.329776 30.914458 C 134.987887 30.914458 136.893998 30.580235 138.042887 29.917013 C 139.191776 29.253791 139.766221 28.115346 139.766221 26.506902 C 139.766221 24.971568 139.186554 23.880124 138.021998 23.232568 C 136.85222 22.574568 135.139331 22.245568 132.872887 22.245568 Z M 153.500666 48.00157 L 153.500666 16.579457 L 174.718556 16.579457 L 174.718556 22.522346 L 160.571555 22.522346 L 160.571555 28.689791 L 173.125779 28.689791 L 173.125779 34.486458 L 160.571555 34.486458 L 160.571555 42.058681 L 175.757779 42.058681 L 175.757779 48.00157 Z M 153.500666 48.00157 " stroke="#000000" stroke-width="1.699999" stroke-opacity="1" stroke-miterlimit="4"/></g><path stroke-linecap="butt" transform="matrix(0.748005, 0, 0, 0.748005, 0.797881, 128.641448)" fill="none" stroke-linejoin="miter" d="M 200.067225 16.271345 C 204.480003 16.271345 207.869225 17.106901 210.240115 18.783234 C 212.616226 20.459568 213.80167 22.961013 213.80167 26.287568 C 213.80167 28.09968 213.477893 29.65068 212.830337 30.935346 C 212.177559 32.220013 211.242781 33.264458 210.015559 34.06868 C 208.793559 34.862458 207.300003 35.442125 205.545336 35.802458 C 203.795892 36.168013 201.821892 36.345569 199.612892 36.345569 L 196.129669 36.345569 L 196.129669 48.00157 L 191.722113 48.00157 L 191.722113 17.03379 C 192.965002 16.730901 194.348891 16.527234 195.87378 16.428012 C 197.398669 16.323568 198.798225 16.271345 200.067225 16.271345 Z M 200.43278 20.120123 C 198.558003 20.120123 197.121891 20.167123 196.129669 20.255901 L 196.129669 32.585569 L 199.435336 32.585569 C 200.944558 32.585569 202.302336 32.486347 203.50867 32.298347 C 204.720225 32.09468 205.738559 31.76568 206.56367 31.300902 C 207.399225 30.82568 208.041559 30.188569 208.49067 29.373902 C 208.945003 28.554013 209.174781 27.509568 209.174781 26.240568 C 209.174781 25.034235 208.939781 24.03679 208.469781 23.253457 C 208.005003 22.464901 207.367892 21.838235 206.56367 21.373457 C 205.769892 20.903457 204.840336 20.574457 203.775003 20.396901 C 202.720114 20.214123 201.607781 20.120123 200.43278 20.120123 Z M 234.654005 34.852013 C 235.13445 35.457791 235.74545 36.251569 236.481783 37.233347 C 237.228561 38.215125 237.991005 39.301347 238.774339 40.497236 C 239.562894 41.693125 240.341006 42.941236 241.108672 44.236347 C 241.881561 45.536681 242.539561 46.790014 243.087895 48.00157 L 238.273005 48.00157 C 237.677672 46.847459 237.019672 45.688125 236.304227 44.513125 C 235.594005 43.332903 234.878561 42.210125 234.14745 41.139569 C 233.421561 40.063792 232.706116 39.055903 232.001116 38.115903 C 231.290894 37.181125 230.64856 36.366458 230.074116 35.671902 C 229.682449 35.703236 229.280338 35.71368 228.867782 35.71368 C 228.460449 35.71368 228.047894 35.71368 227.630116 35.71368 L 223.687338 35.71368 L 223.687338 48.00157 L 219.285004 48.00157 L 219.285004 17.03379 C 220.522671 16.730901 221.90656 16.527234 223.431449 16.428012 C 224.96156 16.323568 226.361116 16.271345 227.630116 16.271345 C 232.037672 16.271345 235.400783 17.101679 237.709005 18.762346 C 240.027672 20.423012 241.187006 22.898346 241.187006 26.198791 C 241.187006 28.277235 240.63345 30.058013 239.526339 31.541124 C 238.42445 33.024235 236.800339 34.131347 234.654005 34.852013 Z M 227.990449 20.120123 C 226.120893 20.120123 224.684782 20.167123 223.687338 20.255901 L 223.687338 32.084235 L 226.810227 32.084235 C 228.319449 32.084235 229.682449 32.011124 230.894005 31.864902 C 232.100338 31.708235 233.118672 31.421013 233.949005 31.003235 C 234.779338 30.580235 235.421672 29.984902 235.870783 29.217235 C 236.330339 28.444346 236.560116 27.420791 236.560116 26.151791 C 236.560116 24.971568 236.330339 23.98979 235.870783 23.211679 C 235.421672 22.423124 234.810672 21.801679 234.037783 21.352568 C 233.270116 20.893012 232.361449 20.574457 231.311783 20.396901 C 230.27256 20.214123 229.165449 20.120123 227.990449 20.120123 Z M 247.793117 16.579457 L 252.200673 16.579457 L 252.200673 48.00157 L 247.793117 48.00157 Z M 285.377453 16.579457 C 284.223342 19.906012 283.126675 22.987124 282.087453 25.812346 C 281.048231 28.637569 280.024675 31.316569 279.022008 33.854569 C 278.024564 36.392569 277.037564 38.820903 276.055786 41.139569 C 275.074008 43.447792 274.071341 45.735125 273.047786 48.00157 L 268.917007 48.00157 C 267.893452 45.735125 266.890785 43.447792 265.909007 41.139569 C 264.927229 38.820903 263.929785 36.392569 262.911452 33.854569 C 261.89834 31.316569 260.86434 28.637569 259.809451 25.812346 C 258.754562 22.987124 257.66834 19.906012 256.545562 16.579457 L 261.391785 16.579457 C 263.02634 21.363012 264.624341 25.958568 266.19623 30.371346 C 267.768119 34.784125 269.387008 38.920125 271.052897 42.789792 C 272.713563 38.951458 274.332452 34.82068 275.904341 30.392235 C 277.471008 25.963791 279.058564 21.363012 280.661786 16.579457 Z M 310.715677 48.00157 C 310.198677 46.643792 309.71301 45.306903 309.258677 43.996125 C 308.804344 42.674903 308.339566 41.332792 307.864344 39.975014 L 293.628565 39.975014 L 290.761565 48.00157 L 286.19212 48.00157 C 287.403675 44.675014 288.536898 41.593903 289.591787 38.76868 C 290.646676 35.943458 291.680676 33.264458 292.688565 30.726458 C 293.706898 28.188457 294.714787 25.765346 295.712232 23.451901 C 296.704454 21.143679 297.748898 18.851123 298.840343 16.579457 L 302.871899 16.579457 C 303.963343 18.851123 305.007788 21.143679 306.00001 23.451901 C 306.997455 25.765346 308.000121 28.188457 309.013233 30.726458 C 310.021121 33.264458 311.055122 35.943458 312.110011 38.76868 C 313.175344 41.593903 314.308566 44.675014 315.520122 48.00157 Z M 306.590121 36.345569 C 305.62401 33.718791 304.663121 31.175569 303.712677 28.71068 C 302.762232 26.245791 301.77001 23.880124 300.746454 21.618901 C 299.681121 23.880124 298.678454 26.245791 297.722787 28.71068 C 296.772343 31.175569 295.82712 33.718791 294.892343 36.345569 Z M 340.769568 16.579457 L 340.769568 20.396901 L 330.889123 20.396901 L 330.889123 48.00157 L 326.481567 48.00157 L 326.481567 20.396901 L 316.611566 20.396901 L 316.611566 16.579457 Z M 345.386013 48.00157 L 345.386013 16.579457 L 364.567236 16.579457 L 364.567236 20.344679 L 349.788346 20.344679 L 349.788346 29.682013 L 362.927459 29.682013 L 362.927459 33.358458 L 349.788346 33.358458 L 349.788346 44.236347 L 365.695236 44.236347 L 365.695236 48.00157 Z M 389.043794 44.868236 C 393.634127 44.868236 395.926683 43.296347 395.926683 40.152569 C 395.926683 39.186458 395.723016 38.366569 395.320905 37.68768 C 394.913572 37.008791 394.360016 36.41868 393.660238 35.927791 C 392.965683 35.426458 392.171905 34.993013 391.278905 34.63268 C 390.391127 34.267124 389.451127 33.906791 388.443238 33.536013 C 387.304794 33.144347 386.213349 32.700458 385.179349 32.209569 C 384.155793 31.708235 383.262793 31.118124 382.500349 30.439235 C 381.748349 29.760346 381.158238 28.950902 380.719571 28.010902 C 380.286126 27.076124 380.066793 25.937679 380.066793 24.606013 C 380.066793 21.859124 381.006793 19.718012 382.881571 18.172234 C 384.751127 16.631679 387.336127 15.864012 390.626127 15.864012 C 392.527016 15.864012 394.260794 16.067679 395.817016 16.480234 C 397.373239 16.887568 398.511683 17.331457 399.237572 17.811901 L 397.832794 21.394346 C 397.195683 20.997457 396.250461 20.611012 394.997127 20.235012 C 393.743794 19.859012 392.286794 19.671012 390.626127 19.671012 C 389.774905 19.671012 388.991571 19.75979 388.270905 19.94779 C 387.545016 20.120123 386.913127 20.391679 386.364793 20.752012 C 385.821682 21.112346 385.388238 21.577124 385.069682 22.135901 C 384.751127 22.699901 384.59446 23.352679 384.59446 24.104679 C 384.59446 24.955902 384.761571 25.666124 385.090571 26.240568 C 385.424793 26.820235 385.894793 27.326791 386.500571 27.77068 C 387.101127 28.204124 387.806127 28.601013 388.599905 28.966569 C 389.404127 29.326902 390.291905 29.687235 391.258016 30.047569 C 392.621016 30.595902 393.869127 31.139013 394.997127 31.687347 C 396.135572 32.225235 397.11735 32.872791 397.942461 33.635236 C 398.772794 34.387236 399.415128 35.285458 399.864239 36.335125 C 400.323794 37.374347 400.553572 38.632903 400.553572 40.110792 C 400.553572 42.862903 399.545683 44.977903 397.529905 46.461014 C 395.524572 47.938903 392.694127 48.675237 389.043794 48.675237 C 387.806127 48.675237 386.66246 48.591681 385.612793 48.419348 C 384.573571 48.257459 383.644016 48.064237 382.824127 47.844903 C 382.014682 47.615125 381.309682 47.374903 380.719571 47.113792 C 380.12946 46.857903 379.669904 46.63857 379.335682 46.461014 L 380.656904 42.83157 C 381.346238 43.223236 382.401127 43.661903 383.821571 44.14757 C 385.242016 44.628014 386.986238 44.868236 389.043794 44.868236 Z M 413.337573 48.00157 L 413.337573 35.395125 C 411.248684 32.162569 409.279906 28.977013 407.436462 25.833235 C 405.598239 22.689457 403.864461 19.608346 402.235128 16.579457 L 407.405128 16.579457 C 408.548795 19.060012 409.82824 21.577124 411.243462 24.141235 C 412.669129 26.694902 414.136573 29.144124 415.645796 31.499346 C 417.128907 29.144124 418.580685 26.694902 419.995907 24.141235 C 421.421574 21.577124 422.721907 19.060012 423.891685 16.579457 L 428.795352 16.579457 C 427.166019 19.608346 425.427018 22.684235 423.583574 25.812346 C 421.740129 28.940457 419.787018 32.105124 417.729462 35.306347 L 417.729462 48.00157 Z M 447.057464 43.651458 C 446.754575 42.920347 446.352464 41.996014 445.851131 40.88368 C 445.360242 39.760903 444.822353 38.554569 444.247909 37.254236 C 443.673464 35.953902 443.062464 34.622236 442.409686 33.248791 C 441.762131 31.870124 441.151131 30.569791 440.571464 29.353013 C 440.007464 28.125791 439.469575 27.034346 438.968242 26.063013 C 438.466908 25.091679 438.064797 24.350124 437.761908 23.843568 C 437.432908 27.405124 437.15613 31.264346 436.942019 35.426458 C 436.738353 39.583347 436.560797 43.77157 436.414575 48.00157 L 432.095797 48.00157 C 432.22113 45.27557 432.356908 42.539125 432.508352 39.776569 C 432.659797 37.008791 432.83213 34.293236 433.025352 31.619458 C 433.223797 28.940457 433.437908 26.334568 433.657241 23.796568 C 433.887019 21.258568 434.137686 18.851123 434.409241 16.579457 L 438.263242 16.579457 C 439.077908 17.916346 439.960464 19.493457 440.895242 21.305568 C 441.83002 23.112457 442.77002 25.008124 443.704798 26.992568 C 444.644798 28.971791 445.548242 30.951013 446.430798 32.925013 C 447.308131 34.904236 448.107131 36.711125 448.827798 38.350903 C 449.553687 36.711125 450.352687 34.904236 451.23002 32.925013 C 452.107354 30.951013 453.01602 28.971791 453.95602 26.992568 C 454.890798 25.008124 455.825576 23.112457 456.765576 21.305568 C 457.700354 19.493457 458.577687 17.916346 459.387132 16.579457 L 463.241132 16.579457 C 464.26991 26.710568 465.042799 37.186347 465.554577 48.00157 L 461.246243 48.00157 C 461.100021 43.77157 460.917243 39.583347 460.703132 35.426458 C 460.489021 31.264346 460.217465 27.405124 459.883243 23.843568 C 459.585576 24.350124 459.183465 25.091679 458.67691 26.063013 C 458.186021 27.034346 457.648132 28.125791 457.073687 29.353013 C 456.499243 30.569791 455.888243 31.870124 455.235465 33.248791 C 454.587909 34.622236 453.976909 35.953902 453.402465 37.254236 C 452.833243 38.554569 452.295354 39.760903 451.79402 40.88368 C 451.303131 41.996014 450.90102 42.920347 450.598131 43.651458 Z M 480.918356 48.278348 C 480.281245 48.278348 479.591911 48.257459 478.850356 48.220903 C 478.1088 48.18957 477.372467 48.147792 476.636133 48.090348 C 475.8998 48.027681 475.163466 47.95457 474.432355 47.865792 C 473.711688 47.771792 473.043244 47.651681 472.442688 47.500237 L 472.442688 17.03379 C 473.043244 16.887568 473.711688 16.767457 474.432355 16.678679 C 475.163466 16.584679 475.8998 16.506345 476.636133 16.448901 C 477.372467 16.391457 478.103578 16.344457 478.824244 16.313123 C 479.555356 16.287012 480.239467 16.271345 480.871356 16.271345 C 482.688689 16.271345 484.391134 16.407123 485.973467 16.678679 C 487.561023 16.955457 488.934467 17.415012 490.093801 18.062568 C 491.258356 18.715346 492.172245 19.566568 492.835468 20.621457 C 493.509134 21.676346 493.843357 22.971457 493.843357 24.517235 C 493.843357 26.240568 493.436023 27.661013 492.616134 28.768124 C 491.796245 29.864791 490.710023 30.68468 489.352245 31.222569 C 491.19569 31.770902 492.657912 32.632569 493.744134 33.812791 C 494.835579 34.993013 495.383912 36.658902 495.383912 38.805236 C 495.383912 41.938569 494.224579 44.304236 491.905912 45.897014 C 489.59769 47.48457 485.936912 48.278348 480.918356 48.278348 Z M 476.787578 33.358458 L 476.787578 44.413903 C 477.127022 44.450459 477.523911 44.487014 477.973022 44.513125 C 478.364689 44.544459 478.824244 44.565347 479.356911 44.581014 C 479.889578 44.596681 480.500578 44.601903 481.195133 44.601903 C 482.495467 44.601903 483.722689 44.52357 484.882023 44.356459 C 486.046578 44.189347 487.070134 43.891681 487.947467 43.473903 C 488.824801 43.045681 489.524578 42.455569 490.046801 41.703569 C 490.579467 40.941125 490.845801 39.99068 490.845801 38.847014 C 490.845801 37.813014 490.647356 36.946125 490.260912 36.235902 C 489.869245 35.52568 489.300023 34.96168 488.553245 34.543902 C 487.816912 34.11568 486.934356 33.812791 485.9108 33.635236 C 484.882023 33.452458 483.733134 33.358458 482.458911 33.358458 Z M 476.787578 29.828235 L 481.414467 29.828235 C 482.505911 29.828235 483.534689 29.755124 484.506023 29.608902 C 485.472134 29.452235 486.307689 29.18068 487.017912 28.789013 C 487.722912 28.386902 488.28169 27.875124 488.689023 27.238013 C 489.101578 26.606124 489.305245 25.801902 489.305245 24.83579 C 489.305245 23.927124 489.091134 23.164679 488.662912 22.548457 C 488.245134 21.927012 487.665467 21.430901 486.929134 21.049679 C 486.187578 20.673679 485.320689 20.396901 484.318023 20.224568 C 483.320578 20.036568 482.265689 19.94779 481.148133 19.94779 C 480.030578 19.94779 479.153244 19.958235 478.516133 19.989568 C 477.884244 20.020901 477.304578 20.062679 476.787578 20.120123 Z M 500.324135 32.272235 C 500.324135 29.582791 500.721024 27.20668 501.520024 25.159568 C 502.324246 23.102013 503.410468 21.383901 504.783913 20.010457 C 506.157357 18.63179 507.76058 17.59779 509.588358 16.903234 C 511.416136 16.208679 513.364025 15.864012 515.42158 15.864012 C 517.44258 15.864012 519.348692 16.208679 521.139914 16.903234 C 522.941581 17.59779 524.518692 18.63179 525.87647 20.010457 C 527.244692 21.383901 528.325692 23.102013 529.11947 25.159568 C 529.923692 27.20668 530.325804 29.582791 530.325804 32.272235 C 530.325804 34.96168 529.923692 37.332569 529.11947 39.390125 C 528.325692 41.442458 527.244692 43.155347 525.87647 44.534014 C 524.518692 45.907459 522.941581 46.941459 521.139914 47.636014 C 519.348692 48.33057 517.44258 48.675237 515.42158 48.675237 C 513.364025 48.675237 511.416136 48.33057 509.588358 47.636014 C 507.76058 46.941459 506.157357 45.907459 504.783913 44.534014 C 503.410468 43.155347 502.324246 41.442458 501.520024 39.390125 C 500.721024 37.332569 500.324135 34.96168 500.324135 32.272235 Z M 504.94058 32.272235 C 504.94058 34.178347 505.180802 35.906902 505.661246 37.463125 C 506.146913 39.019347 506.836246 40.345792 507.729246 41.437236 C 508.622246 42.523458 509.708469 43.359014 510.993136 43.949125 C 512.277802 44.534014 513.719136 44.821236 515.322358 44.821236 C 516.920358 44.821236 518.356469 44.534014 519.625469 43.949125 C 520.89447 43.359014 521.97547 42.523458 522.86847 41.437236 C 523.76147 40.345792 524.445581 39.019347 524.926025 37.463125 C 525.411692 35.906902 525.657137 34.178347 525.657137 32.272235 C 525.657137 30.371346 525.411692 28.642791 524.926025 27.081346 C 524.445581 25.525124 523.76147 24.203902 522.86847 23.122901 C 521.97547 22.031457 520.89447 21.190679 519.625469 20.600568 C 518.356469 20.010457 516.920358 19.71279 515.322358 19.71279 C 513.719136 19.71279 512.277802 20.010457 510.993136 20.600568 C 509.708469 21.190679 508.622246 22.031457 507.729246 23.122901 C 506.836246 24.203902 506.146913 25.525124 505.661246 27.081346 C 505.180802 28.642791 504.94058 30.371346 504.94058 32.272235 Z M 555.752805 44.19457 L 555.752805 48.00157 L 536.853582 48.00157 L 536.853582 16.579457 L 541.255915 16.579457 L 541.255915 44.19457 Z M 567.680362 44.868236 C 572.270695 44.868236 574.563251 43.296347 574.563251 40.152569 C 574.563251 39.186458 574.364807 38.366569 573.957473 37.68768 C 573.55014 37.008791 572.996584 36.41868 572.296806 35.927791 C 571.602251 35.426458 570.808473 34.993013 569.915473 34.63268 C 569.032917 34.267124 568.087695 33.906791 567.085028 33.536013 C 565.941362 33.144347 564.849917 32.700458 563.821139 32.209569 C 562.792361 31.708235 561.899361 31.118124 561.142139 30.439235 C 560.390139 29.760346 559.794806 28.950902 559.361361 28.010902 C 558.922694 27.076124 558.708583 25.937679 558.708583 24.606013 C 558.708583 21.859124 559.643361 19.718012 561.518139 18.172234 C 563.392917 16.631679 565.972695 15.864012 569.262695 15.864012 C 571.168806 15.864012 572.897362 16.067679 574.453584 16.480234 C 576.009807 16.887568 577.153474 17.331457 577.87414 17.811901 L 576.469362 21.394346 C 575.832251 20.997457 574.892251 20.611012 573.633695 20.235012 C 572.380362 19.859012 570.923362 19.671012 569.262695 19.671012 C 568.416695 19.671012 567.62814 19.75979 566.907473 19.94779 C 566.181584 20.120123 565.549695 20.391679 565.001362 20.752012 C 564.45825 21.112346 564.024806 21.577124 563.70625 22.135901 C 563.392917 22.699901 563.231028 23.352679 563.231028 24.104679 C 563.231028 24.955902 563.398139 25.666124 563.732361 26.240568 C 564.061361 26.820235 564.531362 27.326791 565.137139 27.77068 C 565.742917 28.204124 566.442695 28.601013 567.236473 28.966569 C 568.040695 29.326902 568.928473 29.687235 569.894584 30.047569 C 571.257584 30.595902 572.505695 31.139013 573.633695 31.687347 C 574.77214 32.225235 575.753918 32.872791 576.579029 33.635236 C 577.414585 34.387236 578.056918 35.285458 578.506029 36.335125 C 578.960363 37.374347 579.19014 38.632903 579.19014 40.110792 C 579.19014 42.862903 578.182251 44.977903 576.171696 46.461014 C 574.16114 47.938903 571.335918 48.675237 567.680362 48.675237 C 566.442695 48.675237 565.299028 48.591681 564.249361 48.419348 C 563.210139 48.257459 562.280584 48.064237 561.460695 47.844903 C 560.65125 47.615125 559.951472 47.374903 559.361361 47.113792 C 558.77125 46.857903 558.306472 46.63857 557.977472 46.461014 L 559.293472 42.83157 C 559.988028 43.223236 561.042917 43.661903 562.458139 44.14757 C 563.883806 44.628014 565.622806 44.868236 567.680362 44.868236 Z M 594.961253 48.00157 L 594.961253 16.579457 L 613.907476 16.579457 L 613.907476 20.344679 L 599.368808 20.344679 L 599.368808 29.828235 L 612.283365 29.828235 L 612.283365 33.536013 L 599.368808 33.536013 L 599.368808 48.00157 Z M 618.043476 32.272235 C 618.043476 29.582791 618.440365 27.20668 619.239365 25.159568 C 620.043588 23.102013 621.12981 21.383901 622.503254 20.010457 C 623.876699 18.63179 625.474699 17.59779 627.307699 16.903234 C 629.135477 16.208679 631.078144 15.864012 633.1357 15.864012 C 635.1567 15.864012 637.068033 16.208679 638.859256 16.903234 C 640.660922 17.59779 642.238034 18.63179 643.595811 20.010457 C 644.958812 21.383901 646.039812 23.102013 646.838812 25.159568 C 647.643034 27.20668 648.045145 29.582791 648.045145 32.272235 C 648.045145 34.96168 647.643034 37.332569 646.838812 39.390125 C 646.039812 41.442458 644.958812 43.155347 643.595811 44.534014 C 642.238034 45.907459 640.660922 46.941459 638.859256 47.636014 C 637.068033 48.33057 635.1567 48.675237 633.1357 48.675237 C 631.078144 48.675237 629.135477 48.33057 627.307699 47.636014 C 625.474699 46.941459 623.876699 45.907459 622.503254 44.534014 C 621.12981 43.155347 620.043588 41.442458 619.239365 39.390125 C 618.440365 37.332569 618.043476 34.96168 618.043476 32.272235 Z M 622.654699 32.272235 C 622.654699 34.178347 622.894921 35.906902 623.375366 37.463125 C 623.861032 39.019347 624.555588 40.345792 625.448588 41.437236 C 626.336366 42.523458 627.42781 43.359014 628.712477 43.949125 C 629.997144 44.534014 631.438477 44.821236 633.036477 44.821236 C 634.6397 44.821236 636.075811 44.534014 637.344811 43.949125 C 638.613811 43.359014 639.694811 42.523458 640.587811 41.437236 C 641.480811 40.345792 642.164922 39.019347 642.645367 37.463125 C 643.131034 35.906902 643.376478 34.178347 643.376478 32.272235 C 643.376478 30.371346 643.131034 28.642791 642.645367 27.081346 C 642.164922 25.525124 641.480811 24.203902 640.587811 23.122901 C 639.694811 22.031457 638.613811 21.190679 637.344811 20.600568 C 636.075811 20.010457 634.6397 19.71279 633.036477 19.71279 C 631.438477 19.71279 629.997144 20.010457 628.712477 20.600568 C 627.42781 21.190679 626.336366 22.031457 625.448588 23.122901 C 624.555588 24.203902 623.861032 25.525124 623.375366 27.081346 C 622.894921 28.642791 622.654699 30.371346 622.654699 32.272235 Z M 669.941924 34.852013 C 670.422369 35.457791 671.028147 36.251569 671.769702 37.233347 C 672.511258 38.215125 673.273702 39.301347 674.057036 40.497236 C 674.845591 41.693125 675.623703 42.941236 676.391369 44.236347 C 677.16948 45.536681 677.827481 46.790014 678.375814 48.00157 L 673.560925 48.00157 C 672.960369 46.847459 672.307591 45.688125 671.592147 44.513125 C 670.881924 43.332903 670.161258 42.210125 669.430147 41.139569 C 668.70948 40.063792 667.994035 39.055903 667.283813 38.115903 C 666.578813 37.181125 665.93648 36.366458 665.362035 35.671902 C 664.970369 35.703236 664.568257 35.71368 664.155702 35.71368 C 663.748368 35.71368 663.335813 35.71368 662.912813 35.71368 L 658.975257 35.71368 L 658.975257 48.00157 L 654.567701 48.00157 L 654.567701 17.03379 C 655.81059 16.730901 657.194479 16.527234 658.719368 16.428012 C 660.244257 16.323568 661.643813 16.271345 662.912813 16.271345 C 667.325591 16.271345 670.688702 17.101679 672.996925 18.762346 C 675.310369 20.423012 676.469703 22.898346 676.469703 26.198791 C 676.469703 28.277235 675.916147 30.058013 674.809036 31.541124 C 673.712369 33.024235 672.088258 34.131347 669.941924 34.852013 Z M 663.278368 20.120123 C 661.403591 20.120123 659.967479 20.167123 658.975257 20.255901 L 658.975257 32.084235 L 662.092924 32.084235 C 663.607368 32.084235 664.970369 32.011124 666.176702 31.864902 C 667.388258 31.708235 668.406591 31.421013 669.231702 31.003235 C 670.067258 30.580235 670.709591 29.984902 671.158702 29.217235 C 671.618258 28.444346 671.842813 27.420791 671.842813 26.151791 C 671.842813 24.971568 671.618258 23.98979 671.158702 23.211679 C 670.709591 22.423124 670.098591 21.801679 669.32048 21.352568 C 668.552813 20.893012 667.644146 20.574457 666.599702 20.396901 C 665.56048 20.214123 664.453368 20.120123 663.278368 20.120123 Z M 663.278368 20.120123 " stroke="#000000" stroke-width="1.699999" stroke-opacity="1" stroke-miterlimit="4"/><g clip-path="url(#b0315f8e92)"><path stroke-linecap="butt" transform="matrix(0.748005, 0, 0, 0.748005, 0.797881, 128.641448)" fill="none" stroke-linejoin="miter" d="M 710.476816 37.442236 C 710.476816 38.982791 710.304483 40.434569 709.959816 41.792347 C 709.609927 43.150125 709.004149 44.33557 708.142483 45.353903 C 707.280816 46.367014 706.111038 47.166014 704.643594 47.756125 C 703.186593 48.341014 701.337927 48.628237 699.102815 48.628237 C 697.040037 48.628237 695.269704 48.382792 693.786593 47.891903 C 692.313926 47.385348 691.091926 46.805681 690.125815 46.142459 L 692.481037 40.653903 C 693.358371 41.165681 694.298371 41.625236 695.295815 42.022125 C 696.288037 42.413792 697.379482 42.612236 698.559704 42.612236 C 700.277815 42.612236 701.515482 42.184014 702.267482 41.338014 C 703.024705 40.486792 703.405927 39.071569 703.405927 37.07668 L 703.405927 16.579457 L 710.476816 16.579457 Z M 717.281372 48.00157 L 717.281372 16.579457 L 738.49404 16.579457 L 738.49404 22.522346 L 724.352262 22.522346 L 724.352262 28.689791 L 736.901262 28.689791 L 736.901262 34.486458 L 724.352262 34.486458 L 724.352262 42.058681 L 739.538485 42.058681 L 739.538485 48.00157 Z M 753.314708 42.612236 C 754.312153 42.612236 755.132042 42.528681 755.784819 42.366792 C 756.432375 42.199681 756.954597 41.969903 757.341042 41.682681 C 757.743153 41.395458 758.014708 41.056014 758.160931 40.664347 C 758.317597 40.262236 758.395931 39.823569 758.395931 39.343125 C 758.395931 38.314347 757.910264 37.457902 756.933708 36.779014 C 755.967597 36.100125 754.30693 35.369013 751.951708 34.58568 C 750.928152 34.220124 749.899374 33.802347 748.865374 33.337569 C 747.841819 32.862347 746.917485 32.272235 746.097596 31.567235 C 745.288152 30.857013 744.62493 29.995346 744.10793 28.987457 C 743.596152 27.974346 743.345485 26.741902 743.345485 25.290124 C 743.345485 23.838346 743.611818 22.53279 744.149707 21.373457 C 744.698041 20.208901 745.47093 19.216679 746.463152 18.407234 C 747.460597 17.587346 748.672152 16.960679 750.092597 16.527234 C 751.518263 16.083345 753.121486 15.864012 754.897041 15.864012 C 757.017264 15.864012 758.845042 16.088568 760.385597 16.548123 C 761.931375 16.997234 763.195153 17.493346 764.192598 18.041679 L 762.155931 23.608568 C 761.278597 23.159457 760.302042 22.762568 759.226264 22.412679 C 758.155708 22.068013 756.865819 21.895679 755.351375 21.895679 C 753.659375 21.895679 752.442597 22.130679 751.701041 22.600679 C 750.959486 23.065457 750.59393 23.780902 750.59393 24.747013 C 750.59393 25.321457 750.729708 25.807124 751.001263 26.198791 C 751.272819 26.590457 751.659263 26.945568 752.155375 27.258902 C 752.656708 27.577457 753.231152 27.86468 753.878708 28.125791 C 754.526264 28.38168 755.24693 28.648013 756.035486 28.919569 C 757.670042 29.525346 759.085264 30.12068 760.286375 30.716013 C 761.497931 31.29568 762.50582 31.985013 763.310042 32.773569 C 764.114264 33.55168 764.709598 34.476013 765.101264 35.536125 C 765.492931 36.596236 765.686153 37.87568 765.686153 39.390125 C 765.686153 42.319792 764.657376 44.591459 762.59982 46.205125 C 760.547486 47.824014 757.455931 48.628237 753.314708 48.628237 C 751.920375 48.628237 750.661819 48.544681 749.539041 48.37757 C 748.426708 48.215681 747.439708 48.017237 746.572819 47.777014 C 745.721596 47.536792 744.980041 47.275681 744.363819 47.004125 C 743.742374 46.73257 743.220152 46.471459 742.802374 46.231236 L 744.792041 40.606903 C 745.732041 41.123903 746.886152 41.588681 748.259597 42.001236 C 749.627819 42.408569 751.314597 42.612236 753.314708 42.612236 Z M 794.424044 16.579457 L 794.424044 22.611124 L 784.950932 22.611124 L 784.950932 48.00157 L 777.880043 48.00157 L 777.880043 22.611124 L 768.406931 22.611124 L 768.406931 16.579457 Z M 794.424044 16.579457 " stroke="#000000" stroke-width="1.699999" stroke-opacity="1" stroke-miterlimit="4"/></g><g fill="#560216" fill-opacity="1"><g transform="translate(4.269093, 164.545701)"><g><path d="M 9.59375 -23.765625 C 13.125 -23.765625 15.828125 -23.132812 17.703125 -21.875 C 19.578125 -20.625 20.515625 -18.675781 20.515625 -16.03125 C 20.515625 -14.382812 20.132812 -13.046875 19.375 -12.015625 C 18.613281 -10.992188 17.523438 -10.1875 16.109375 -9.59375 C 16.578125 -9.007812 17.070312 -8.335938 17.59375 -7.578125 C 18.113281 -6.816406 18.628906 -6.023438 19.140625 -5.203125 C 19.648438 -4.378906 20.140625 -3.519531 20.609375 -2.625 C 21.085938 -1.726562 21.53125 -0.851562 21.9375 0 L 16 0 C 15.570312 -0.769531 15.132812 -1.550781 14.6875 -2.34375 C 14.25 -3.132812 13.796875 -3.898438 13.328125 -4.640625 C 12.867188 -5.390625 12.414062 -6.097656 11.96875 -6.765625 C 11.519531 -7.429688 11.066406 -8.035156 10.609375 -8.578125 L 8 -8.578125 L 8 0 L 2.71875 0 L 2.71875 -23.15625 C 3.863281 -23.382812 5.050781 -23.539062 6.28125 -23.625 C 7.519531 -23.71875 8.625 -23.765625 9.59375 -23.765625 Z M 9.90625 -19.265625 C 9.519531 -19.265625 9.171875 -19.25 8.859375 -19.21875 C 8.554688 -19.195312 8.269531 -19.175781 8 -19.15625 L 8 -12.78125 L 9.5 -12.78125 C 11.488281 -12.78125 12.910156 -13.03125 13.765625 -13.53125 C 14.617188 -14.03125 15.046875 -14.878906 15.046875 -16.078125 C 15.046875 -17.222656 14.609375 -18.039062 13.734375 -18.53125 C 12.867188 -19.019531 11.59375 -19.265625 9.90625 -19.265625 Z M 9.90625 -19.265625 "/></g></g></g><g fill="#560216" fill-opacity="1"><g transform="translate(26.884187, 164.545701)"><g><path d="M 2.71875 0 L 2.71875 -23.5 L 18.578125 -23.5 L 18.578125 -19.0625 L 8 -19.0625 L 8 -14.4375 L 17.390625 -14.4375 L 17.390625 -10.109375 L 8 -10.109375 L 8 -4.4375 L 19.359375 -4.4375 L 19.359375 0 Z M 2.71875 0 "/></g></g></g><g fill="#560216" fill-opacity="1"><g transform="translate(47.431037, 164.545701)"><g><path d="M 18.484375 -20.984375 C 18.753906 -20.054688 19.050781 -19.007812 19.375 -17.84375 C 19.707031 -16.6875 20.054688 -15.484375 20.421875 -14.234375 C 20.796875 -12.992188 21.175781 -11.75 21.5625 -10.5 C 21.945312 -9.257812 22.320312 -8.109375 22.6875 -7.046875 C 22.976562 -8.203125 23.273438 -9.457031 23.578125 -10.8125 C 23.890625 -12.164062 24.179688 -13.566406 24.453125 -15.015625 C 24.722656 -16.460938 24.988281 -17.90625 25.25 -19.34375 C 25.507812 -20.78125 25.75 -22.164062 25.96875 -23.5 L 31.46875 -23.5 C 30.675781 -19.5625 29.765625 -15.566406 28.734375 -11.515625 C 27.703125 -7.472656 26.585938 -3.632812 25.390625 0 L 20.546875 0 C 19.753906 -2.164062 18.984375 -4.441406 18.234375 -6.828125 C 17.492188 -9.210938 16.757812 -11.601562 16.03125 -14 C 15.3125 -11.601562 14.585938 -9.210938 13.859375 -6.828125 C 13.140625 -4.441406 12.382812 -2.164062 11.59375 0 L 6.75 0 C 5.550781 -3.632812 4.4375 -7.472656 3.40625 -11.515625 C 2.375 -15.566406 1.460938 -19.5625 0.671875 -23.5 L 6.40625 -23.5 C 6.632812 -22.164062 6.882812 -20.78125 7.15625 -19.34375 C 7.425781 -17.90625 7.707031 -16.460938 8 -15.015625 C 8.289062 -13.566406 8.585938 -12.164062 8.890625 -10.8125 C 9.203125 -9.457031 9.515625 -8.203125 9.828125 -7.046875 C 10.234375 -8.160156 10.628906 -9.335938 11.015625 -10.578125 C 11.398438 -11.816406 11.773438 -13.054688 12.140625 -14.296875 C 12.503906 -15.546875 12.835938 -16.742188 13.140625 -17.890625 C 13.441406 -19.046875 13.71875 -20.078125 13.96875 -20.984375 Z M 18.484375 -20.984375 "/></g></g></g><g fill="#560216" fill-opacity="1"><g transform="translate(79.573635, 164.545701)"><g><path d="M 2.71875 -23.5 L 8 -23.5 L 8 0 L 2.71875 0 Z M 2.71875 -23.5 "/></g></g></g><g fill="#560216" fill-opacity="1"><g transform="translate(90.287838, 164.545701)"><g><path d="M 9.59375 -23.765625 C 13.125 -23.765625 15.828125 -23.132812 17.703125 -21.875 C 19.578125 -20.625 20.515625 -18.675781 20.515625 -16.03125 C 20.515625 -14.382812 20.132812 -13.046875 19.375 -12.015625 C 18.613281 -10.992188 17.523438 -10.1875 16.109375 -9.59375 C 16.578125 -9.007812 17.070312 -8.335938 17.59375 -7.578125 C 18.113281 -6.816406 18.628906 -6.023438 19.140625 -5.203125 C 19.648438 -4.378906 20.140625 -3.519531 20.609375 -2.625 C 21.085938 -1.726562 21.53125 -0.851562 21.9375 0 L 16 0 C 15.570312 -0.769531 15.132812 -1.550781 14.6875 -2.34375 C 14.25 -3.132812 13.796875 -3.898438 13.328125 -4.640625 C 12.867188 -5.390625 12.414062 -6.097656 11.96875 -6.765625 C 11.519531 -7.429688 11.066406 -8.035156 10.609375 -8.578125 L 8 -8.578125 L 8 0 L 2.71875 0 L 2.71875 -23.15625 C 3.863281 -23.382812 5.050781 -23.539062 6.28125 -23.625 C 7.519531 -23.71875 8.625 -23.765625 9.59375 -23.765625 Z M 9.90625 -19.265625 C 9.519531 -19.265625 9.171875 -19.25 8.859375 -19.21875 C 8.554688 -19.195312 8.269531 -19.175781 8 -19.15625 L 8 -12.78125 L 9.5 -12.78125 C 11.488281 -12.78125 12.910156 -13.03125 13.765625 -13.53125 C 14.617188 -14.03125 15.046875 -14.878906 15.046875 -16.078125 C 15.046875 -17.222656 14.609375 -18.039062 13.734375 -18.53125 C 12.867188 -19.019531 11.59375 -19.265625 9.90625 -19.265625 Z M 9.90625 -19.265625 "/></g></g></g><g fill="#560216" fill-opacity="1"><g transform="translate(112.902933, 164.545701)"><g><path d="M 2.71875 0 L 2.71875 -23.5 L 18.578125 -23.5 L 18.578125 -19.0625 L 8 -19.0625 L 8 -14.4375 L 17.390625 -14.4375 L 17.390625 -10.109375 L 8 -10.109375 L 8 -4.4375 L 19.359375 -4.4375 L 19.359375 0 Z M 2.71875 0 "/></g></g></g><g fill="#000000" fill-opacity="1"><g transform="translate(133.45194, 164.545701)"><g/></g></g><g fill="#545454" fill-opacity="1"><g transform="translate(141.294311, 164.545701)"><g><path d="M 9.15625 -23.734375 C 12.457031 -23.734375 14.992188 -23.101562 16.765625 -21.84375 C 18.535156 -20.59375 19.421875 -18.722656 19.421875 -16.234375 C 19.421875 -14.878906 19.175781 -13.722656 18.6875 -12.765625 C 18.207031 -11.804688 17.507812 -11.023438 16.59375 -10.421875 C 15.675781 -9.828125 14.5625 -9.394531 13.25 -9.125 C 11.945312 -8.851562 10.46875 -8.71875 8.8125 -8.71875 L 6.203125 -8.71875 L 6.203125 0 L 2.921875 0 L 2.921875 -23.15625 C 3.847656 -23.382812 4.878906 -23.535156 6.015625 -23.609375 C 7.160156 -23.691406 8.207031 -23.734375 9.15625 -23.734375 Z M 9.421875 -20.859375 C 8.023438 -20.859375 6.953125 -20.820312 6.203125 -20.75 L 6.203125 -11.53125 L 8.6875 -11.53125 C 9.8125 -11.53125 10.828125 -11.601562 11.734375 -11.75 C 12.640625 -11.894531 13.398438 -12.140625 14.015625 -12.484375 C 14.640625 -12.835938 15.117188 -13.316406 15.453125 -13.921875 C 15.796875 -14.535156 15.96875 -15.320312 15.96875 -16.28125 C 15.96875 -17.175781 15.789062 -17.914062 15.4375 -18.5 C 15.09375 -19.09375 14.617188 -19.566406 14.015625 -19.921875 C 13.421875 -20.273438 12.726562 -20.519531 11.9375 -20.65625 C 11.144531 -20.789062 10.304688 -20.859375 9.421875 -20.859375 Z M 9.421875 -20.859375 "/></g></g></g><g fill="#545454" fill-opacity="1"><g transform="translate(161.908969, 164.545701)"><g><path d="M 14.40625 -9.828125 C 14.769531 -9.378906 15.226562 -8.785156 15.78125 -8.046875 C 16.332031 -7.316406 16.898438 -6.503906 17.484375 -5.609375 C 18.078125 -4.710938 18.660156 -3.78125 19.234375 -2.8125 C 19.816406 -1.84375 20.3125 -0.90625 20.71875 0 L 17.125 0 C 16.664062 -0.851562 16.171875 -1.722656 15.640625 -2.609375 C 15.109375 -3.492188 14.570312 -4.335938 14.03125 -5.140625 C 13.488281 -5.941406 12.953125 -6.691406 12.421875 -7.390625 C 11.890625 -8.085938 11.410156 -8.695312 10.984375 -9.21875 C 10.691406 -9.195312 10.390625 -9.1875 10.078125 -9.1875 C 9.773438 -9.1875 9.46875 -9.1875 9.15625 -9.1875 L 6.203125 -9.1875 L 6.203125 0 L 2.921875 0 L 2.921875 -23.15625 C 3.847656 -23.382812 4.878906 -23.535156 6.015625 -23.609375 C 7.160156 -23.691406 8.207031 -23.734375 9.15625 -23.734375 C 12.457031 -23.734375 14.972656 -23.109375 16.703125 -21.859375 C 18.429688 -20.617188 19.296875 -18.769531 19.296875 -16.3125 C 19.296875 -14.75 18.878906 -13.410156 18.046875 -12.296875 C 17.222656 -11.191406 16.007812 -10.367188 14.40625 -9.828125 Z M 9.421875 -20.859375 C 8.023438 -20.859375 6.953125 -20.820312 6.203125 -20.75 L 6.203125 -11.90625 L 8.546875 -11.90625 C 9.671875 -11.90625 10.6875 -11.957031 11.59375 -12.0625 C 12.5 -12.175781 13.257812 -12.390625 13.875 -12.703125 C 14.5 -13.023438 14.976562 -13.472656 15.3125 -14.046875 C 15.65625 -14.628906 15.828125 -15.394531 15.828125 -16.34375 C 15.828125 -17.226562 15.65625 -17.960938 15.3125 -18.546875 C 14.976562 -19.128906 14.523438 -19.59375 13.953125 -19.9375 C 13.378906 -20.28125 12.703125 -20.519531 11.921875 -20.65625 C 11.140625 -20.789062 10.304688 -20.859375 9.421875 -20.859375 Z M 9.421875 -20.859375 "/></g></g></g><g fill="#545454" fill-opacity="1"><g transform="translate(183.235645, 164.545701)"><g><path d="M 2.921875 -23.5 L 6.203125 -23.5 L 6.203125 0 L 2.921875 0 Z M 2.921875 -23.5 "/></g></g></g><g fill="#545454" fill-opacity="1"><g transform="translate(192.356274, 164.545701)"><g><path d="M 21.90625 -23.5 C 21.039062 -21.007812 20.21875 -18.707031 19.4375 -16.59375 C 18.664062 -14.476562 17.90625 -12.472656 17.15625 -10.578125 C 16.40625 -8.679688 15.660156 -6.867188 14.921875 -5.140625 C 14.191406 -3.410156 13.445312 -1.695312 12.6875 0 L 9.59375 0 C 8.820312 -1.695312 8.066406 -3.410156 7.328125 -5.140625 C 6.597656 -6.867188 5.851562 -8.679688 5.09375 -10.578125 C 4.34375 -12.472656 3.570312 -14.476562 2.78125 -16.59375 C 1.988281 -18.707031 1.175781 -21.007812 0.34375 -23.5 L 3.96875 -23.5 C 5.1875 -19.925781 6.382812 -16.488281 7.5625 -13.1875 C 8.738281 -9.882812 9.945312 -6.789062 11.1875 -3.90625 C 12.425781 -6.769531 13.632812 -9.859375 14.8125 -13.171875 C 15.988281 -16.484375 17.175781 -19.925781 18.375 -23.5 Z M 21.90625 -23.5 "/></g></g></g><g fill="#545454" fill-opacity="1"><g transform="translate(214.598405, 164.545701)"><g><path d="M 18.609375 0 C 18.222656 -1.019531 17.859375 -2.019531 17.515625 -3 C 17.179688 -3.976562 16.835938 -4.976562 16.484375 -6 L 5.828125 -6 L 3.703125 0 L 0.265625 0 C 1.171875 -2.488281 2.019531 -4.785156 2.8125 -6.890625 C 3.601562 -9.003906 4.375 -11.007812 5.125 -12.90625 C 5.882812 -14.8125 6.640625 -16.628906 7.390625 -18.359375 C 8.140625 -20.085938 8.921875 -21.800781 9.734375 -23.5 L 12.75 -23.5 C 13.5625 -21.800781 14.335938 -20.085938 15.078125 -18.359375 C 15.828125 -16.628906 16.582031 -14.8125 17.34375 -12.90625 C 18.101562 -11.007812 18.878906 -9.003906 19.671875 -6.890625 C 20.460938 -4.785156 21.304688 -2.488281 22.203125 0 Z M 15.53125 -8.71875 C 14.800781 -10.675781 14.082031 -12.578125 13.375 -14.421875 C 12.664062 -16.265625 11.925781 -18.035156 11.15625 -19.734375 C 10.363281 -18.035156 9.609375 -16.265625 8.890625 -14.421875 C 8.179688 -12.578125 7.476562 -10.675781 6.78125 -8.71875 Z M 15.53125 -8.71875 "/></g></g></g><g fill="#545454" fill-opacity="1"><g transform="translate(237.077871, 164.545701)"><g><path d="M 18.609375 -23.5 L 18.609375 -20.65625 L 11.21875 -20.65625 L 11.21875 0 L 7.9375 0 L 7.9375 -20.65625 L 0.546875 -20.65625 L 0.546875 -23.5 Z M 18.609375 -23.5 "/></g></g></g><g fill="#545454" fill-opacity="1"><g transform="translate(256.234583, 164.545701)"><g><path d="M 2.921875 0 L 2.921875 -23.5 L 17.265625 -23.5 L 17.265625 -20.6875 L 6.203125 -20.6875 L 6.203125 -13.703125 L 16.03125 -13.703125 L 16.03125 -10.953125 L 6.203125 -10.953125 L 6.203125 -2.8125 L 18.109375 -2.8125 L 18.109375 0 Z M 2.921875 0 "/></g></g></g><g fill="#545454" fill-opacity="1"><g transform="translate(275.594732, 164.545701)"><g/></g></g><g fill="#545454" fill-opacity="1"><g transform="translate(283.426942, 164.545701)"><g><path d="M 8.375 -2.34375 C 11.8125 -2.34375 13.53125 -3.515625 13.53125 -5.859375 C 13.53125 -6.585938 13.375 -7.203125 13.0625 -7.703125 C 12.757812 -8.210938 12.347656 -8.65625 11.828125 -9.03125 C 11.304688 -9.40625 10.710938 -9.726562 10.046875 -10 C 9.378906 -10.269531 8.675781 -10.539062 7.9375 -10.8125 C 7.070312 -11.101562 6.253906 -11.4375 5.484375 -11.8125 C 4.722656 -12.1875 4.054688 -12.628906 3.484375 -13.140625 C 2.921875 -13.648438 2.472656 -14.253906 2.140625 -14.953125 C 1.816406 -15.648438 1.65625 -16.5 1.65625 -17.5 C 1.65625 -19.550781 2.351562 -21.15625 3.75 -22.3125 C 5.15625 -23.46875 7.09375 -24.046875 9.5625 -24.046875 C 10.988281 -24.046875 12.28125 -23.890625 13.4375 -23.578125 C 14.601562 -23.273438 15.457031 -22.941406 16 -22.578125 L 14.953125 -19.90625 C 14.472656 -20.195312 13.765625 -20.484375 12.828125 -20.765625 C 11.890625 -21.046875 10.800781 -21.1875 9.5625 -21.1875 C 8.925781 -21.1875 8.335938 -21.117188 7.796875 -20.984375 C 7.253906 -20.847656 6.78125 -20.644531 6.375 -20.375 C 5.96875 -20.101562 5.644531 -19.757812 5.40625 -19.34375 C 5.164062 -18.925781 5.046875 -18.4375 5.046875 -17.875 C 5.046875 -17.238281 5.171875 -16.703125 5.421875 -16.265625 C 5.671875 -15.835938 6.019531 -15.457031 6.46875 -15.125 C 6.925781 -14.800781 7.453125 -14.503906 8.046875 -14.234375 C 8.648438 -13.960938 9.3125 -13.691406 10.03125 -13.421875 C 11.050781 -13.015625 11.984375 -12.609375 12.828125 -12.203125 C 13.679688 -11.796875 14.414062 -11.3125 15.03125 -10.75 C 15.65625 -10.1875 16.132812 -9.515625 16.46875 -8.734375 C 16.8125 -7.953125 16.984375 -7.007812 16.984375 -5.90625 C 16.984375 -3.84375 16.234375 -2.253906 14.734375 -1.140625 C 13.234375 -0.0351562 11.113281 0.515625 8.375 0.515625 C 7.445312 0.515625 6.59375 0.453125 5.8125 0.328125 C 5.03125 0.203125 4.332031 0.0546875 3.71875 -0.109375 C 3.113281 -0.285156 2.585938 -0.46875 2.140625 -0.65625 C 1.703125 -0.851562 1.363281 -1.019531 1.125 -1.15625 L 2.109375 -3.859375 C 2.617188 -3.566406 3.40625 -3.238281 4.46875 -2.875 C 5.53125 -2.519531 6.832031 -2.34375 8.375 -2.34375 Z M 8.375 -2.34375 "/></g></g></g><g fill="#545454" fill-opacity="1"><g transform="translate(301.464773, 164.545701)"><g><path d="M 8.515625 0 L 8.515625 -9.421875 C 6.953125 -11.835938 5.476562 -14.222656 4.09375 -16.578125 C 2.71875 -18.929688 1.421875 -21.238281 0.203125 -23.5 L 4.0625 -23.5 C 4.925781 -21.644531 5.890625 -19.757812 6.953125 -17.84375 C 8.015625 -15.9375 9.109375 -14.101562 10.234375 -12.34375 C 11.347656 -14.101562 12.4375 -15.9375 13.5 -17.84375 C 14.5625 -19.757812 15.53125 -21.644531 16.40625 -23.5 L 20.078125 -23.5 C 18.847656 -21.238281 17.546875 -18.9375 16.171875 -16.59375 C 14.796875 -14.257812 13.335938 -11.894531 11.796875 -9.5 L 11.796875 0 Z M 8.515625 0 "/></g></g></g><g fill="#545454" fill-opacity="1"><g transform="translate(321.740377, 164.545701)"><g><path d="M 13.453125 -3.25 C 13.234375 -3.789062 12.9375 -4.476562 12.5625 -5.3125 C 12.1875 -6.15625 11.785156 -7.0625 11.359375 -8.03125 C 10.929688 -9.007812 10.472656 -10.007812 9.984375 -11.03125 C 9.492188 -12.0625 9.035156 -13.035156 8.609375 -13.953125 C 8.179688 -14.867188 7.78125 -15.6875 7.40625 -16.40625 C 7.03125 -17.132812 6.734375 -17.691406 6.515625 -18.078125 C 6.265625 -15.410156 6.054688 -12.519531 5.890625 -9.40625 C 5.734375 -6.300781 5.601562 -3.164062 5.5 0 L 2.265625 0 C 2.359375 -2.03125 2.460938 -4.078125 2.578125 -6.140625 C 2.691406 -8.210938 2.820312 -10.25 2.96875 -12.25 C 3.113281 -14.25 3.269531 -16.195312 3.4375 -18.09375 C 3.613281 -20 3.800781 -21.800781 4 -23.5 L 6.890625 -23.5 C 7.492188 -22.5 8.144531 -21.320312 8.84375 -19.96875 C 9.550781 -18.613281 10.253906 -17.195312 10.953125 -15.71875 C 11.648438 -14.238281 12.328125 -12.753906 12.984375 -11.265625 C 13.640625 -9.785156 14.238281 -8.4375 14.78125 -7.21875 C 15.320312 -8.4375 15.921875 -9.785156 16.578125 -11.265625 C 17.234375 -12.753906 17.910156 -14.238281 18.609375 -15.71875 C 19.316406 -17.195312 20.019531 -18.613281 20.71875 -19.96875 C 21.414062 -21.320312 22.070312 -22.5 22.6875 -23.5 L 25.5625 -23.5 C 26.332031 -15.925781 26.910156 -8.09375 27.296875 0 L 24.078125 0 C 23.960938 -3.164062 23.820312 -6.300781 23.65625 -9.40625 C 23.5 -12.519531 23.300781 -15.410156 23.0625 -18.078125 C 22.832031 -17.691406 22.53125 -17.132812 22.15625 -16.40625 C 21.78125 -15.6875 21.378906 -14.867188 20.953125 -13.953125 C 20.523438 -13.035156 20.066406 -12.0625 19.578125 -11.03125 C 19.097656 -10.007812 18.640625 -9.007812 18.203125 -8.03125 C 17.773438 -7.0625 17.375 -6.15625 17 -5.3125 C 16.625 -4.476562 16.328125 -3.789062 16.109375 -3.25 Z M 13.453125 -3.25 "/></g></g></g><g fill="#545454" fill-opacity="1"><g transform="translate(351.272227, 164.545701)"><g><path d="M 9.25 0.203125 C 8.78125 0.203125 8.269531 0.191406 7.71875 0.171875 C 7.164062 0.148438 6.609375 0.113281 6.046875 0.0625 C 5.492188 0.0195312 4.945312 -0.03125 4.40625 -0.09375 C 3.863281 -0.164062 3.367188 -0.257812 2.921875 -0.375 L 2.921875 -23.15625 C 3.367188 -23.269531 3.863281 -23.359375 4.40625 -23.421875 C 4.945312 -23.492188 5.492188 -23.550781 6.046875 -23.59375 C 6.609375 -23.644531 7.160156 -23.679688 7.703125 -23.703125 C 8.242188 -23.722656 8.75 -23.734375 9.21875 -23.734375 C 10.570312 -23.734375 11.84375 -23.628906 13.03125 -23.421875 C 14.21875 -23.222656 15.242188 -22.878906 16.109375 -22.390625 C 16.984375 -21.910156 17.671875 -21.273438 18.171875 -20.484375 C 18.671875 -19.691406 18.921875 -18.71875 18.921875 -17.5625 C 18.921875 -16.269531 18.613281 -15.210938 18 -14.390625 C 17.394531 -13.566406 16.582031 -12.953125 15.5625 -12.546875 C 16.9375 -12.140625 18.03125 -11.492188 18.84375 -10.609375 C 19.664062 -9.734375 20.078125 -8.492188 20.078125 -6.890625 C 20.078125 -4.535156 19.210938 -2.765625 17.484375 -1.578125 C 15.753906 -0.390625 13.007812 0.203125 9.25 0.203125 Z M 6.171875 -10.953125 L 6.171875 -2.671875 C 6.421875 -2.648438 6.710938 -2.628906 7.046875 -2.609375 C 7.347656 -2.585938 7.695312 -2.570312 8.09375 -2.5625 C 8.488281 -2.550781 8.941406 -2.546875 9.453125 -2.546875 C 10.429688 -2.546875 11.351562 -2.609375 12.21875 -2.734375 C 13.09375 -2.859375 13.859375 -3.078125 14.515625 -3.390625 C 15.171875 -3.703125 15.695312 -4.140625 16.09375 -4.703125 C 16.488281 -5.273438 16.6875 -5.988281 16.6875 -6.84375 C 16.6875 -7.613281 16.535156 -8.265625 16.234375 -8.796875 C 15.941406 -9.328125 15.519531 -9.75 14.96875 -10.0625 C 14.414062 -10.382812 13.753906 -10.613281 12.984375 -10.75 C 12.210938 -10.882812 11.351562 -10.953125 10.40625 -10.953125 Z M 6.171875 -13.59375 L 9.625 -13.59375 C 10.4375 -13.59375 11.203125 -13.648438 11.921875 -13.765625 C 12.648438 -13.878906 13.28125 -14.082031 13.8125 -14.375 C 14.34375 -14.664062 14.757812 -15.046875 15.0625 -15.515625 C 15.375 -15.992188 15.53125 -16.597656 15.53125 -17.328125 C 15.53125 -18.003906 15.367188 -18.570312 15.046875 -19.03125 C 14.734375 -19.5 14.300781 -19.875 13.75 -20.15625 C 13.195312 -20.4375 12.546875 -20.644531 11.796875 -20.78125 C 11.054688 -20.914062 10.265625 -20.984375 9.421875 -20.984375 C 8.585938 -20.984375 7.929688 -20.972656 7.453125 -20.953125 C 6.984375 -20.929688 6.554688 -20.898438 6.171875 -20.859375 Z M 6.171875 -13.59375 "/></g></g></g><g fill="#545454" fill-opacity="1"><g transform="translate(373.073585, 164.545701)"><g><path d="M 1.96875 -11.765625 C 1.96875 -13.773438 2.265625 -15.546875 2.859375 -17.078125 C 3.460938 -18.617188 4.273438 -19.90625 5.296875 -20.9375 C 6.328125 -21.96875 7.523438 -22.742188 8.890625 -23.265625 C 10.265625 -23.785156 11.71875 -24.046875 13.25 -24.046875 C 14.769531 -24.046875 16.203125 -23.785156 17.546875 -23.265625 C 18.890625 -22.742188 20.066406 -21.96875 21.078125 -20.9375 C 22.097656 -19.90625 22.90625 -18.617188 23.5 -17.078125 C 24.101562 -15.546875 24.40625 -13.773438 24.40625 -11.765625 C 24.40625 -9.753906 24.101562 -7.976562 23.5 -6.4375 C 22.90625 -4.90625 22.097656 -3.625 21.078125 -2.59375 C 20.066406 -1.5625 18.890625 -0.785156 17.546875 -0.265625 C 16.203125 0.253906 14.769531 0.515625 13.25 0.515625 C 11.71875 0.515625 10.265625 0.253906 8.890625 -0.265625 C 7.523438 -0.785156 6.328125 -1.5625 5.296875 -2.59375 C 4.273438 -3.625 3.460938 -4.90625 2.859375 -6.4375 C 2.265625 -7.976562 1.96875 -9.753906 1.96875 -11.765625 Z M 5.421875 -11.765625 C 5.421875 -10.335938 5.601562 -9.039062 5.96875 -7.875 C 6.332031 -6.71875 6.847656 -5.734375 7.515625 -4.921875 C 8.179688 -4.109375 8.992188 -3.476562 9.953125 -3.03125 C 10.910156 -2.59375 11.988281 -2.375 13.1875 -2.375 C 14.382812 -2.375 15.457031 -2.59375 16.40625 -3.03125 C 17.351562 -3.476562 18.160156 -4.109375 18.828125 -4.921875 C 19.492188 -5.734375 20.007812 -6.71875 20.375 -7.875 C 20.738281 -9.039062 20.921875 -10.335938 20.921875 -11.765625 C 20.921875 -13.191406 20.738281 -14.484375 20.375 -15.640625 C 20.007812 -16.804688 19.492188 -17.796875 18.828125 -18.609375 C 18.160156 -19.421875 17.351562 -20.046875 16.40625 -20.484375 C 15.457031 -20.929688 14.382812 -21.15625 13.1875 -21.15625 C 11.988281 -21.15625 10.910156 -20.929688 9.953125 -20.484375 C 8.992188 -20.046875 8.179688 -19.421875 7.515625 -18.609375 C 6.847656 -17.796875 6.332031 -16.804688 5.96875 -15.640625 C 5.601562 -14.484375 5.421875 -13.191406 5.421875 -11.765625 Z M 5.421875 -11.765625 "/></g></g></g><g fill="#545454" fill-opacity="1"><g transform="translate(399.452207, 164.545701)"><g><path d="M 17.0625 -2.84375 L 17.0625 0 L 2.921875 0 L 2.921875 -23.5 L 6.203125 -23.5 L 6.203125 -2.84375 Z M 17.0625 -2.84375 "/></g></g></g><g fill="#545454" fill-opacity="1"><g transform="translate(417.049255, 164.545701)"><g><path d="M 8.375 -2.34375 C 11.8125 -2.34375 13.53125 -3.515625 13.53125 -5.859375 C 13.53125 -6.585938 13.375 -7.203125 13.0625 -7.703125 C 12.757812 -8.210938 12.347656 -8.65625 11.828125 -9.03125 C 11.304688 -9.40625 10.710938 -9.726562 10.046875 -10 C 9.378906 -10.269531 8.675781 -10.539062 7.9375 -10.8125 C 7.070312 -11.101562 6.253906 -11.4375 5.484375 -11.8125 C 4.722656 -12.1875 4.054688 -12.628906 3.484375 -13.140625 C 2.921875 -13.648438 2.472656 -14.253906 2.140625 -14.953125 C 1.816406 -15.648438 1.65625 -16.5 1.65625 -17.5 C 1.65625 -19.550781 2.351562 -21.15625 3.75 -22.3125 C 5.15625 -23.46875 7.09375 -24.046875 9.5625 -24.046875 C 10.988281 -24.046875 12.28125 -23.890625 13.4375 -23.578125 C 14.601562 -23.273438 15.457031 -22.941406 16 -22.578125 L 14.953125 -19.90625 C 14.472656 -20.195312 13.765625 -20.484375 12.828125 -20.765625 C 11.890625 -21.046875 10.800781 -21.1875 9.5625 -21.1875 C 8.925781 -21.1875 8.335938 -21.117188 7.796875 -20.984375 C 7.253906 -20.847656 6.78125 -20.644531 6.375 -20.375 C 5.96875 -20.101562 5.644531 -19.757812 5.40625 -19.34375 C 5.164062 -18.925781 5.046875 -18.4375 5.046875 -17.875 C 5.046875 -17.238281 5.171875 -16.703125 5.421875 -16.265625 C 5.671875 -15.835938 6.019531 -15.457031 6.46875 -15.125 C 6.925781 -14.800781 7.453125 -14.503906 8.046875 -14.234375 C 8.648438 -13.960938 9.3125 -13.691406 10.03125 -13.421875 C 11.050781 -13.015625 11.984375 -12.609375 12.828125 -12.203125 C 13.679688 -11.796875 14.414062 -11.3125 15.03125 -10.75 C 15.65625 -10.1875 16.132812 -9.515625 16.46875 -8.734375 C 16.8125 -7.953125 16.984375 -7.007812 16.984375 -5.90625 C 16.984375 -3.84375 16.234375 -2.253906 14.734375 -1.140625 C 13.234375 -0.0351562 11.113281 0.515625 8.375 0.515625 C 7.445312 0.515625 6.59375 0.453125 5.8125 0.328125 C 5.03125 0.203125 4.332031 0.0546875 3.71875 -0.109375 C 3.113281 -0.285156 2.585938 -0.46875 2.140625 -0.65625 C 1.703125 -0.851562 1.363281 -1.019531 1.125 -1.15625 L 2.109375 -3.859375 C 2.617188 -3.566406 3.40625 -3.238281 4.46875 -2.875 C 5.53125 -2.519531 6.832031 -2.34375 8.375 -2.34375 Z M 8.375 -2.34375 "/></g></g></g><g fill="#545454" fill-opacity="1"><g transform="translate(435.087075, 164.545701)"><g/></g></g><g fill="#545454" fill-opacity="1"><g transform="translate(442.919284, 164.545701)"><g><path d="M 2.921875 0 L 2.921875 -23.5 L 17.09375 -23.5 L 17.09375 -20.6875 L 6.203125 -20.6875 L 6.203125 -13.59375 L 15.875 -13.59375 L 15.875 -10.8125 L 6.203125 -10.8125 L 6.203125 0 Z M 2.921875 0 "/></g></g></g><g fill="#545454" fill-opacity="1"><g transform="translate(461.126643, 164.545701)"><g><path d="M 1.96875 -11.765625 C 1.96875 -13.773438 2.265625 -15.546875 2.859375 -17.078125 C 3.460938 -18.617188 4.273438 -19.90625 5.296875 -20.9375 C 6.328125 -21.96875 7.523438 -22.742188 8.890625 -23.265625 C 10.265625 -23.785156 11.71875 -24.046875 13.25 -24.046875 C 14.769531 -24.046875 16.203125 -23.785156 17.546875 -23.265625 C 18.890625 -22.742188 20.066406 -21.96875 21.078125 -20.9375 C 22.097656 -19.90625 22.90625 -18.617188 23.5 -17.078125 C 24.101562 -15.546875 24.40625 -13.773438 24.40625 -11.765625 C 24.40625 -9.753906 24.101562 -7.976562 23.5 -6.4375 C 22.90625 -4.90625 22.097656 -3.625 21.078125 -2.59375 C 20.066406 -1.5625 18.890625 -0.785156 17.546875 -0.265625 C 16.203125 0.253906 14.769531 0.515625 13.25 0.515625 C 11.71875 0.515625 10.265625 0.253906 8.890625 -0.265625 C 7.523438 -0.785156 6.328125 -1.5625 5.296875 -2.59375 C 4.273438 -3.625 3.460938 -4.90625 2.859375 -6.4375 C 2.265625 -7.976562 1.96875 -9.753906 1.96875 -11.765625 Z M 5.421875 -11.765625 C 5.421875 -10.335938 5.601562 -9.039062 5.96875 -7.875 C 6.332031 -6.71875 6.847656 -5.734375 7.515625 -4.921875 C 8.179688 -4.109375 8.992188 -3.476562 9.953125 -3.03125 C 10.910156 -2.59375 11.988281 -2.375 13.1875 -2.375 C 14.382812 -2.375 15.457031 -2.59375 16.40625 -3.03125 C 17.351562 -3.476562 18.160156 -4.109375 18.828125 -4.921875 C 19.492188 -5.734375 20.007812 -6.71875 20.375 -7.875 C 20.738281 -9.039062 20.921875 -10.335938 20.921875 -11.765625 C 20.921875 -13.191406 20.738281 -14.484375 20.375 -15.640625 C 20.007812 -16.804688 19.492188 -17.796875 18.828125 -18.609375 C 18.160156 -19.421875 17.351562 -20.046875 16.40625 -20.484375 C 15.457031 -20.929688 14.382812 -21.15625 13.1875 -21.15625 C 11.988281 -21.15625 10.910156 -20.929688 9.953125 -20.484375 C 8.992188 -20.046875 8.179688 -19.421875 7.515625 -18.609375 C 6.847656 -17.796875 6.332031 -16.804688 5.96875 -15.640625 C 5.601562 -14.484375 5.421875 -13.191406 5.421875 -11.765625 Z M 5.421875 -11.765625 "/></g></g></g><g fill="#545454" fill-opacity="1"><g transform="translate(487.505265, 164.545701)"><g><path d="M 14.40625 -9.828125 C 14.769531 -9.378906 15.226562 -8.785156 15.78125 -8.046875 C 16.332031 -7.316406 16.898438 -6.503906 17.484375 -5.609375 C 18.078125 -4.710938 18.660156 -3.78125 19.234375 -2.8125 C 19.816406 -1.84375 20.3125 -0.90625 20.71875 0 L 17.125 0 C 16.664062 -0.851562 16.171875 -1.722656 15.640625 -2.609375 C 15.109375 -3.492188 14.570312 -4.335938 14.03125 -5.140625 C 13.488281 -5.941406 12.953125 -6.691406 12.421875 -7.390625 C 11.890625 -8.085938 11.410156 -8.695312 10.984375 -9.21875 C 10.691406 -9.195312 10.390625 -9.1875 10.078125 -9.1875 C 9.773438 -9.1875 9.46875 -9.1875 9.15625 -9.1875 L 6.203125 -9.1875 L 6.203125 0 L 2.921875 0 L 2.921875 -23.15625 C 3.847656 -23.382812 4.878906 -23.535156 6.015625 -23.609375 C 7.160156 -23.691406 8.207031 -23.734375 9.15625 -23.734375 C 12.457031 -23.734375 14.972656 -23.109375 16.703125 -21.859375 C 18.429688 -20.617188 19.296875 -18.769531 19.296875 -16.3125 C 19.296875 -14.75 18.878906 -13.410156 18.046875 -12.296875 C 17.222656 -11.191406 16.007812 -10.367188 14.40625 -9.828125 Z M 9.421875 -20.859375 C 8.023438 -20.859375 6.953125 -20.820312 6.203125 -20.75 L 6.203125 -11.90625 L 8.546875 -11.90625 C 9.671875 -11.90625 10.6875 -11.957031 11.59375 -12.0625 C 12.5 -12.175781 13.257812 -12.390625 13.875 -12.703125 C 14.5 -13.023438 14.976562 -13.472656 15.3125 -14.046875 C 15.65625 -14.628906 15.828125 -15.394531 15.828125 -16.34375 C 15.828125 -17.226562 15.65625 -17.960938 15.3125 -18.546875 C 14.976562 -19.128906 14.523438 -19.59375 13.953125 -19.9375 C 13.378906 -20.28125 12.703125 -20.519531 11.921875 -20.65625 C 11.140625 -20.789062 10.304688 -20.859375 9.421875 -20.859375 Z M 9.421875 -20.859375 "/></g></g></g><g fill="#000000" fill-opacity="1"><g transform="translate(508.833708, 164.545701)"><g/></g></g><g fill="#25632d" fill-opacity="1"><g transform="translate(516.676079, 164.545701)"><g><path d="M 15.5625 -7.90625 C 15.5625 -6.75 15.429688 -5.660156 15.171875 -4.640625 C 14.910156 -3.628906 14.457031 -2.742188 13.8125 -1.984375 C 13.164062 -1.222656 12.296875 -0.625 11.203125 -0.1875 C 10.109375 0.25 8.722656 0.46875 7.046875 0.46875 C 5.515625 0.46875 4.191406 0.285156 3.078125 -0.078125 C 1.972656 -0.453125 1.0625 -0.890625 0.34375 -1.390625 L 2.109375 -5.5 C 2.753906 -5.113281 3.453125 -4.769531 4.203125 -4.46875 C 4.953125 -4.175781 5.765625 -4.03125 6.640625 -4.03125 C 7.929688 -4.03125 8.859375 -4.347656 9.421875 -4.984375 C 9.992188 -5.617188 10.28125 -6.679688 10.28125 -8.171875 L 10.28125 -23.5 L 15.5625 -23.5 Z M 15.5625 -7.90625 "/></g></g></g><g fill="#25632d" fill-opacity="1"><g transform="translate(534.612193, 164.545701)"><g><path d="M 2.71875 0 L 2.71875 -23.5 L 18.578125 -23.5 L 18.578125 -19.0625 L 8 -19.0625 L 8 -14.4375 L 17.390625 -14.4375 L 17.390625 -10.109375 L 8 -10.109375 L 8 -4.4375 L 19.359375 -4.4375 L 19.359375 0 Z M 2.71875 0 "/></g></g></g><g fill="#25632d" fill-opacity="1"><g transform="translate(555.159042, 164.545701)"><g><path d="M 9.125 -4.03125 C 9.863281 -4.03125 10.476562 -4.09375 10.96875 -4.21875 C 11.457031 -4.34375 11.847656 -4.507812 12.140625 -4.71875 C 12.429688 -4.9375 12.632812 -5.191406 12.75 -5.484375 C 12.863281 -5.785156 12.921875 -6.113281 12.921875 -6.46875 C 12.921875 -7.238281 12.554688 -7.878906 11.828125 -8.390625 C 11.109375 -8.898438 9.867188 -9.445312 8.109375 -10.03125 C 7.335938 -10.300781 6.566406 -10.613281 5.796875 -10.96875 C 5.023438 -11.320312 4.332031 -11.765625 3.71875 -12.296875 C 3.113281 -12.828125 2.617188 -13.46875 2.234375 -14.21875 C 1.847656 -14.976562 1.65625 -15.898438 1.65625 -16.984375 C 1.65625 -18.066406 1.859375 -19.039062 2.265625 -19.90625 C 2.671875 -20.78125 3.25 -21.523438 4 -22.140625 C 4.75 -22.753906 5.65625 -23.222656 6.71875 -23.546875 C 7.78125 -23.878906 8.976562 -24.046875 10.3125 -24.046875 C 11.894531 -24.046875 13.257812 -23.875 14.40625 -23.53125 C 15.5625 -23.1875 16.515625 -22.8125 17.265625 -22.40625 L 15.734375 -18.234375 C 15.078125 -18.578125 14.347656 -18.878906 13.546875 -19.140625 C 12.742188 -19.398438 11.773438 -19.53125 10.640625 -19.53125 C 9.378906 -19.53125 8.472656 -19.351562 7.921875 -19 C 7.367188 -18.65625 7.09375 -18.117188 7.09375 -17.390625 C 7.09375 -16.960938 7.191406 -16.601562 7.390625 -16.3125 C 7.597656 -16.019531 7.882812 -15.753906 8.25 -15.515625 C 8.625 -15.273438 9.054688 -15.054688 9.546875 -14.859375 C 10.035156 -14.671875 10.570312 -14.476562 11.15625 -14.28125 C 12.375 -13.820312 13.4375 -13.375 14.34375 -12.9375 C 15.25 -12.5 16 -11.984375 16.59375 -11.390625 C 17.195312 -10.804688 17.644531 -10.117188 17.9375 -9.328125 C 18.226562 -8.535156 18.375 -7.570312 18.375 -6.4375 C 18.375 -4.25 17.601562 -2.550781 16.0625 -1.34375 C 14.53125 -0.132812 12.21875 0.46875 9.125 0.46875 C 8.082031 0.46875 7.140625 0.40625 6.296875 0.28125 C 5.460938 0.164062 4.722656 0.0195312 4.078125 -0.15625 C 3.441406 -0.34375 2.890625 -0.535156 2.421875 -0.734375 C 1.960938 -0.941406 1.570312 -1.140625 1.25 -1.328125 L 2.75 -5.53125 C 3.445312 -5.144531 4.3125 -4.796875 5.34375 -4.484375 C 6.375 -4.179688 7.632812 -4.03125 9.125 -4.03125 Z M 9.125 -4.03125 "/></g></g></g><g fill="#25632d" fill-opacity="1"><g transform="translate(574.892155, 164.545701)"><g><path d="M 20.140625 -23.5 L 20.140625 -18.984375 L 13.046875 -18.984375 L 13.046875 0 L 7.765625 0 L 7.765625 -18.984375 L 0.671875 -18.984375 L 0.671875 -23.5 Z M 20.140625 -23.5 "/></g></g></g></svg>